<?xml version="1.0" encoding="utf-8"?>
<!-- Generator: Adobe Illustrator 27.5.0, SVG Export Plug-In . SVG Version: 6.00 Build 0)  -->
<svg version="1.1" id="Capa_1" xmlns="http://www.w3.org/2000/svg" xmlns:xlink="http://www.w3.org/1999/xlink" x="0px" y="0px"
	 viewBox="0 0 453.543 453.543" style="enable-background:new 0 0 453.543 453.543;" xml:space="preserve">
<rect y="-0.001" style="fill:#FFFFFF;" width="453.543" height="453.543"/>
<g>
	<polygon style="fill:#9EABD3;" points="378.199,347.975 222.605,242.946 87.109,299.071 242.693,404.1 	"/>
	<path style="fill:#9EABD3;" d="M208.008,264.435c0,16.456-25.638,29.797-57.264,29.797c-31.627,0-57.264-13.341-57.264-29.797
		c0-16.457,25.637-29.798,57.264-29.798C182.37,234.637,208.008,247.977,208.008,264.435z"/>
	<g>
		<g>
			<path style="fill:#F8B78F;" d="M150.618,188.679c1.07,3.062,2.021,6.156,2.225,9.213c0,0-4.277,17.908-0.104,38l1.664,19.954
				l5.555,2.41l4.088-65.2l0.047-4.377H150.618z"/>
			<g>
				<path style="fill:#F8B78F;" d="M165.145,272.217c-3.767-6.526-5.188-13.961-5.188-13.961l-0.452-4.096h-4.69l-0.993,4.068
					c0,0-1.1,1.883,0.815,5.128c0,0,3.554,10.642,7.177,11.261C161.814,274.617,166.865,275.923,165.145,272.217"/>
				<polygon style="fill:#222223;" points="152.345,273.001 153.286,272.685 154.758,266.707 153.459,266.484 				"/>
				<path style="fill:#203139;" d="M154.403,255.846c-0.94,3.81-0.25,6.574,4.188,14.248c0.708,1.225,3.2,4.537,5.211,3.64
					c0,0,2.037-0.521,0.287-3.385l3.076,3.689c1.035,1.121,3.658,2.445,1.186,3.506c-1.766,0.761-4.472,0.748-6.313,0.451
					c-1.846-0.297-3.811-0.824-4.475-2.566c-0.789-2.072-1.065-4.018-2.21-6.004c-0.426-0.736-0.911-2.243-1.565-2.65
					c-0.625,2.73-0.957,3.396-1.432,6.158l-0.934-0.6c0.337-1.974,0.898-5.631,1.01-7.601
					C152.606,261.669,151.243,258.468,154.403,255.846"/>
			</g>
		</g>
		<g>
			<path style="fill:#F8B78F;" d="M135.331,192.022c1.071,3.064,2.021,6.158,2.224,9.214c0,0-4.276,17.908-0.102,38.001
				l1.663,19.953l5.555,2.408l4.088-65.198l0.047-4.378H135.331z"/>
			<g>
				<path style="fill:#F8B78F;" d="M149.858,275.56c-3.766-6.527-5.188-13.963-5.188-13.963l-0.453-4.094h-4.689l-0.992,4.067
					c0,0-1.1,1.884,0.814,5.13c0,0,3.555,10.641,7.178,11.26C146.528,277.961,151.578,279.266,149.858,275.56"/>
				<polygon style="fill:#222223;" points="137.059,276.346 138,276.029 139.471,270.051 138.172,269.828 				"/>
				<path style="fill:#203139;" d="M139.116,259.189c-0.941,3.811-0.25,6.572,4.188,14.248c0.709,1.223,3.201,4.537,5.213,3.639
					c0,0,2.036-0.522,0.287-3.384l3.076,3.689c1.033,1.121,3.657,2.445,1.186,3.507c-1.768,0.759-4.473,0.747-6.313,0.45
					c-1.845-0.297-3.81-0.824-4.476-2.567c-0.787-2.072-1.064-4.017-2.21-6.003c-0.425-0.736-0.909-2.244-1.564-2.65
					c-0.625,2.73-0.957,3.395-1.432,6.157l-0.934-0.601c0.337-1.971,0.898-5.631,1.01-7.599
					C137.319,265.012,135.956,261.81,139.116,259.189"/>
			</g>
		</g>
		<path style="fill:#F4B78E;" d="M153.974,81.324l5.002,27.972c0,0-0.091,4.693,3.997,9.589l18.9,28.685l4.277-2.151l-17.206-33.938
			l-2.681-31.373c0,0,0.382-9.383-6.829-8.35C159.434,71.756,152.487,71.989,153.974,81.324z"/>
		<path style="fill:#F4B78E;" d="M140.47,79.509l10.275-4.935c0,0,12.392,14.871,0,19.949
			C150.745,94.523,136.915,93.224,140.47,79.509z"/>
		<path style="fill:#4F66AF;" d="M165.705,130.766l-13.015,0.96h-23.178c0,0-4.871,9.633-1.998,22.186
			c2.278,16.101,4.542,32.04,5.109,48.268c4.934,2.059,10.285,3.293,15.586,3.462c2.612,0.171,3.502-0.051,3.502-0.051
			c5.44-0.322,10.71-1.837,15.28-4.809l0.468-9.146L165.705,130.766z"/>
		<path style="fill:#D1D3D4;" d="M152.888,203.553c-3.543,0.05-7.895-0.25-10.847-2.446c-2.454-1.824-3.731-4.525-4.335-7.475
			c-1.673-8.167-2.09-16.838-3.111-25.121c-0.764-6.201-1.356-12.439-1.255-18.694c0.099-6.095,1.431-12.022,1.739-18.091h-5.566
			c0,0-4.871,9.633-1.998,22.186c2.278,16.101,4.542,32.04,5.109,48.268c4.934,2.059,10.285,3.293,15.586,3.462
			c2.612,0.171,3.502-0.051,3.502-0.051c5.44-0.322,10.71-1.837,15.28-4.809l0.135-2.65
			C163.225,201.507,158.258,203.477,152.888,203.553z"/>
		<rect x="140.47" y="64.325" style="fill:#F4B78E;" width="10.275" height="20.701"/>
		<path style="opacity:0.5;fill:#F4B78E;" d="M150.745,75.308V64.325H140.47v6.251C140.47,70.576,142.274,71.746,150.745,75.308z"/>
		<path style="fill:#F4B78E;" d="M135.509,65.872c-7.432-5.181-10.627-25.998,3.306-31.289c10.093-3.833,21.416,4.201,19.187,15.199
			c-0.492,2.43,0.791,4.757,1.029,7.149c0.38,3.799-0.34,7.393-2.539,12.576c-1.691,3.988-8.09,1.468-11.469,0.616
			C141.638,69.271,138.378,67.872,135.509,65.872z"/>
		<path style="fill:#4F66AF;" d="M129.513,131.726c0,0,17.215,8.995,36.192-0.96l-4.932-20.698l4.104-7.249
			c3.627-6.055-0.03-14.881-0.078-14.997c-0.526-1.266-0.179-3.101-0.146-4.434c0.054-2.108,0.044-4.195-0.379-6.269
			c-0.475-2.338-1.406-5.41-4.32-5.372c-3.145,0.042-6.401,1.551-9.208,2.827c6.722,12.461,2.254,16.72,2.254,16.72
			c-9.588,3.229-12.529-11.785-12.529-11.785c-3.092,1.315-7.392,3.924-10.477,6.259c-2.537,1.919-1.629,3.976-1.279,8.336
			c0.443,5.562,5.098,12.102,6.055,21.711c0,0,1.138,4.287-0.957,7.384L129.513,131.726z"/>
		<path style="fill:#D1D3D4;" d="M158.449,107.058c-2.808,1.055-5.734,1.742-8.562,2.741c-4.19,1.478-10.072,2.648-12.426-2.284
			c-2.237-4.687,1.51-9.339,2.75-13.655c0.889-3.087,1.115-7.528-2.317-9.19c-1.54-0.746-3.227-0.94-4.92-0.991
			c-1.056,0.694-2.074,1.403-2.981,2.09c-2.537,1.919-1.629,3.976-1.279,8.336c0.443,5.562,5.098,12.102,6.055,21.711
			c0,0,1.138,4.287-0.957,7.384l-4.299,8.526c0,0,2.045,1.06,5.484,2.049c0.479-5.883,1.799-11.882,6.115-15.767
			c0.152-0.174,0.31-0.341,0.473-0.497c3.273-3.111,8.408-3.674,12.584-4.744c2.297-0.588,4.743-1.285,6.64-2.76l3.29-5.814
			C162.219,105.158,160.432,106.313,158.449,107.058z"/>
		<path style="fill:#6B2E18;" d="M137.662,67.263c0.99-6.617,0.341-2.938-0.382-8.448c0,0-0.782-2.077,0.486-3.284
			c0.451-0.39,0.987-0.708,1.268-1.206c2.68-4.751,3.24-11.758,3.24-11.756l-11.797-7.042c0,0-9.922,11.455-1.327,24.181
			C129.15,59.708,131.594,64.325,137.662,67.263z"/>
		<path style="fill:#F4784C;" d="M144.138,30.622c-8.6-0.826-13.66,4.904-13.66,4.904l11.797,7.042
			c2.953-1.984,3.739-3.244,5.902-3.601c5.705-0.941,8.075-0.321,9.908,7.83c0.003,0.012-0.188,4.48-0.188,4.48
			S164.855,32.616,144.138,30.622z"/>
		<path style="fill:#F4B78E;" d="M126.049,91.758l-6.142,27.744c0,0-1.891,4.297,0,10.389l6.412,33.746l4.776-0.339l-2.829-37.945
			l9.594-29.992c0,0,3.961-8.514-3.092-10.334C134.768,85.026,128.267,82.569,126.049,91.758z"/>
		<g>
			<path style="fill:#F8B78F;" d="M188.197,148.837c-0.047-0.785-0.414-0.751-1.198-0.858c-0.634-0.087-1.315,0.036-1.95-0.084
				c-0.536-0.101-1.301-1.237-1.834-1.929c-0.566,0.328-1.014,0.604-1.593,0.907c0.53,1.468,1.277,5.989,3.16,7.552l2.749-0.854
				c0.625-0.068,0.86-0.668,1.51-0.902C189.477,152.514,188.241,149.579,188.197,148.837z"/>
			<path style="fill:#F8B78F;" d="M188.225,146.589l-2.243-1.26l-0.515-0.525c-0.518,0.236-1.029,0.482-1.529,0.753
				c-0.345,0.186-0.684,0.385-1.023,0.581c1.144,1.848,1.502,2.04,1.502,2.04s0.257,0.954,2.685,0.641l1.097,0.019
				c0,0,1.104,1.859,2.48,0.904C190.092,148.667,188.479,146.716,188.225,146.589z"/>
			<path style="fill:#F8B78F;" d="M188.89,155.636c0.347,0.316,0.933,0.039,0.933,0.039c0.736-0.386-0.191-1.599-0.191-1.599
				l0.311,0.591c0,0,1.589-0.482,0.01-2.477c-1.408-1.779-1.754-3.354-1.754-3.354s-1.2,0.688-1.023,1.459
				c0,0-0.881-0.674-0.842,0.576c0,0-0.838-0.359-0.876,0.634c0,0-1.665,0.796-1.492,1.578l1.025,1.791
				c0.685,1.028,1.321,0.54,1.321,0.54c0.746-0.316-0.055-1.205-0.055-1.205l0.838,1.34c0.484,0.576,1.064,0.283,1.064,0.283
				c1.084-0.254-0.074-1.386-0.074-1.386S188.292,155.089,188.89,155.636z"/>
		</g>
		<g>
			<path style="fill:#F8B78F;" d="M129.476,169.988c0.678,0.133,0.616,2.056,2.793,2.159c0.17-2.262,0.135-3.589,0-4.157
				c-0.197-0.84-0.621-0.928-1.408-1.296c-0.635-0.298-1.389-0.395-2.014-0.728c-0.633-0.336-1.117-2.327-1.472-3.072h-0.951
				c0,0-0.653,3.705-0.606,6.544L129.476,169.988z"/>
			<path style="fill:#F8B78F;" d="M134.544,169.987c-0.262-1.317-0.777-4.028-1.001-4.243l-1.874-2.322l-0.709-1.796
				c-1.87,0.738-3.585,1.269-3.585,1.269c0.632,2.539,0.718,3.16,0.718,3.16s0.365,1.326,3.008,1.794l1.145,0.38
				C132.245,168.228,132.788,170.537,134.544,169.987z"/>
			<path style="fill:#F8B78F;" d="M125.775,168.656c0-0.857,0.778-0.641,0.778-0.641c0.814-0.025,0.783,0.657,0.783,0.657v-0.359
				c0.223-0.395,0.867-0.184,0.867-0.184c0.723,0.08,0.628,0.837,0.628,0.837l0.044-0.67c0.156-0.394,0.848-0.257,0.848-0.257
				c0.893,0.137,0.759,0.84,0.759,0.84v0.291c0,0,1.811-0.557,1.786,1.869v1.108c0,0-0.863,0.491-1.846-0.604
				c0,0-1.121,0.604-1.752-0.39c0,0-0.916,0.31-1.49-0.455c0,0-1.059,0.251-1.294-0.431L125.775,168.656z"/>
		</g>
		<g>
			<path style="fill:#F4B78E;" d="M140.302,60.088c-1.248,1.072-3.42,0.591-4.849-1.074c-1.429-1.664-1.577-3.882-0.329-4.954
				c1.249-1.073,3.419-0.59,4.85,1.074C141.402,56.798,141.55,59.017,140.302,60.088z"/>
			<path style="fill:#DD957C;" d="M139.546,58.078c-0.513-0.001-0.514-0.243-0.664-0.64c-0.111-0.296-0.302-0.481-0.551-0.665
				c-0.273-0.202-0.481-0.149-0.673-0.036c-0.176,0.029-0.359,0.101-0.531,0.176c-0.551,0.239-0.819,0.078-0.897-0.575
				c-0.09-0.748,0.59-1.275,1.277-1.559c0.293-0.12,0.363-0.382-0.088-0.422c-1.391-0.12-2.107,1.221-1.818,2.457
				c0.104,0.441,0.409,0.89,0.887,0.947c0.02,0.003,0.063-0.001,0.115-0.009c0.331,0.311,0.766,0.437,1.098,0.754
				c0.051,0.049,0.106,0.073,0.162,0.086c0.112,0.141,0.23,0.277,0.369,0.386c0.422,0.331,0.885-0.18,1.314-0.191
				C140,58.773,140.003,58.078,139.546,58.078z"/>
		</g>
		<path style="fill:#F4784C;" d="M141.835,50.285c-0.912,2.539-2.51,4.708-3.195,7.166c-0.733,2.625-0.352,5.703,0.353,8.346
			c0.739,2.78,3.059,4.811,3.827,7.158c1.666,5.093-4.564,9.656-4.615,14.891c-0.051,5.399,5.287,11.4,1.852,16.663
			c-1.336,2.044-4.354,3.212-6.83,3.2c-3.617-0.02-3.78-1.25-6.272,2.472c-1.196,1.788-1.985,3.971-3.985,4.553
			c-3.345,0.973-6.822-4.036-7.264-6.512c-1.484-8.327,0.992-9.799,3.363-15.591c2.908-7.105-0.896-6.343-2.301-12.933
			c-1.511-7.087,3.564-10.302,2.303-17.007c-1.314-6.976-2.25-10.489,3.545-16.974c3.109-3.481,3.031-10.188,10.58-12.409
			c5.684-1.673,6.766,2.586,9.164,7.157C143.608,42.845,142.731,47.791,141.835,50.285z"/>
	</g>
	<path style="fill:#9EABD3;" d="M380.89,293.389c0,16.456-25.638,29.797-57.264,29.797c-31.627,0-57.264-13.341-57.264-29.797
		c0-16.457,25.637-29.798,57.264-29.798C355.252,263.591,380.89,276.932,380.89,293.389z"/>
	<path style="fill:#9EABD3;" d="M185.725,354.262c0,16.456-25.638,29.797-57.264,29.797c-31.627,0-57.264-13.341-57.264-29.797
		c0-16.457,25.637-29.798,57.264-29.798C160.087,324.464,185.725,337.805,185.725,354.262z"/>
	<path style="fill:#9EABD3;" d="M382.346,393.204c0,16.456-25.638,29.797-57.264,29.797c-31.627,0-57.264-13.341-57.264-29.797
		c0-16.457,25.637-29.798,57.264-29.798C356.708,363.406,382.346,376.747,382.346,393.204z"/>
	<g>
		<g>
			<g>
				<path style="fill:#311A09;" d="M314.661,84.768c0.904,2.263,2.456,3.128,1.115,5.491c-1.327,2.339-1.275,3.767-0.932,5.434
					c0.35,1.7,2.072,2.485,2.367,4.246c0.357,2.139-1.83,2.399-2.221,4.346c-0.502,2.506-0.357,5.493,2.994,7.005
					c0,0-4.031,1.943-0.77,6.884c1.471,2.229,3.332-0.039,4.607-0.944c1.814-1.285,2.536-0.907,4.542-0.881
					c2.431,0.034,3.163-0.397,3.313-2.84c0.136-2.224-0.253-5.895,2.41-7.008c2.171-0.908,2.964-1.692,3.988-4.332
					c0.796-2.05,0.291-4.101-0.69-6.003c-0.908-1.76-2.717-3.059-2.82-5.177c-0.096-1.96,0.543-4.001-0.155-5.909
					c-0.535-1.463-1.853-2.597-2.952-3.639c-0.963-0.913-2.698-3.051-3.036-4.338c-1.249-4.761-1.812-4.541-3.1-5.622
					c-1.633-1.371-3.674-1.772-5.754,2.009C314.091,76.085,312.538,79.455,314.661,84.768z"/>
				<path style="fill:#F4B78E;" d="M319.999,131.049l-9.215,26.878c0,0,1.381,4.654-3.406,8.867l-19.041,21.443l-3.9-2.778
					l16.164-26.895l7.441-30.594c0,0,1.055-9.331,8.024-7.21C316.066,120.76,322.896,122.052,319.999,131.049z"/>
				<g>
					<path style="fill:#F8B78F;" d="M282.333,192.014c-0.647-0.24-1.596,1.434-3.51,0.389c1.035-2.02,1.756-3.135,2.167-3.549
						c0.607-0.613,1.015-0.469,1.878-0.373c0.697,0.078,1.391,0.387,2.098,0.43c0.715,0.041,2.166-1.405,2.857-1.855l0.811,0.496
						c0,0-1.372,3.502-2.891,5.9L282.333,192.014z"/>
					<path style="fill:#F8B78F;" d="M278.009,189.372c0.91-0.987,2.762-3.032,3.064-3.099l2.811-1.006l1.541-1.164
						c1.211,1.605,2.398,2.951,2.398,2.951c-1.861,1.836-2.259,2.323-2.259,2.323s-1.003,0.941-3.503-0.037l-1.174-0.273
						C280.888,189.068,279.22,190.758,278.009,189.372z"/>
					<path style="fill:#F8B78F;" d="M286.185,192.805c0.447-0.73-0.33-0.952-0.33-0.952c-0.681-0.444-1.01,0.153-1.01,0.153
						l0.186-0.307c0.015-0.453-0.643-0.609-0.643-0.609c-0.658-0.309-0.971,0.387-0.971,0.387l0.311-0.594
						c0.072-0.418-0.59-0.662-0.59-0.662c-0.833-0.349-1.086,0.322-1.086,0.322l-0.151,0.248c0,0-1.255-1.42-2.499,0.664
						l-0.578,0.947c0,0,0.481,0.867,1.892,0.443c0,0,0.642,1.104,1.698,0.582c0,0,0.619,0.742,1.509,0.389
						c0,0,0.773,0.766,1.329,0.307L286.185,192.805z"/>
				</g>
				<g>
					<path style="fill:#FCC3A2;" d="M313.642,287.2l0.523,4.236l-14.84,5.266c0,0-2.636,0.92-0.961,2.1c0,0,3.219,2.223,7.973,0.049
						l10.145-4.563l2.458-0.9l-0.13-6.293L313.642,287.2z"/>
					<g>
						<path style="fill:#29323D;" d="M318.985,293.214l-2.609,1.158l-9.994,4.307c-4.752,2.172-7.969-0.051-7.969-0.051
							c-1.679-1.18,0.755-2.256,0.755-2.256l3.6-1.471l9.982-4.318l-0.207-1.891c0,0-0.11-0.797,0.862-0.947l2.869,0.18
							c0,0,1.117,0.287,0.814,1.168l-0.437,1.1l2.255-0.986L318.985,293.214"/>
						<path style="fill:#040D18;" d="M305.57,296.042l10.878-4.803l0.204-1.047l0.437-1.1c0.303-0.881-0.814-1.168-0.814-1.168
							l-2.869-0.18c-0.973,0.15-0.862,0.947-0.862,0.947l0.207,1.891l-9.982,4.318l-1.982,0.809
							C300.786,295.71,302.208,297.636,305.57,296.042z"/>
						<path style="fill:#EBEBEC;" d="M297.819,297.741c0,0-0.344,0.912,0.441,1.953c0,0,3.612,2.572,7.91,0.432l12.895-5.635
							l-0.08-1.277l-13.971,5.584C305.015,298.798,300.552,300.456,297.819,297.741z"/>
						<path style="fill:#939598;" d="M305.282,296.774c0.016,0.283-0.198,0.529-0.48,0.545c-0.285,0.018-0.527-0.195-0.545-0.479
							c-0.018-0.285,0.195-0.529,0.482-0.547C305.021,296.276,305.264,296.491,305.282,296.774z"/>
						<path style="fill:#939598;" d="M307.511,295.804c0.018,0.281-0.197,0.527-0.481,0.545c-0.282,0.018-0.526-0.197-0.544-0.48
							c-0.017-0.283,0.199-0.527,0.48-0.545C307.25,295.306,307.493,295.521,307.511,295.804z"/>
						<path style="fill:#939598;" d="M309.412,294.913c0.018,0.281-0.198,0.525-0.482,0.543c-0.283,0.018-0.525-0.197-0.545-0.48
							c-0.016-0.283,0.197-0.525,0.481-0.543C309.149,294.415,309.393,294.63,309.412,294.913z"/>
						<path style="fill:#939598;" d="M311.33,293.993c0.018,0.283-0.199,0.527-0.482,0.545c-0.283,0.016-0.527-0.197-0.545-0.48
							c-0.018-0.283,0.199-0.529,0.481-0.545C311.067,293.495,311.313,293.712,311.33,293.993z"/>
						<path style="fill:#939598;" d="M313.577,293.034c0.018,0.283-0.197,0.527-0.479,0.545c-0.281,0.017-0.528-0.197-0.544-0.483
							c-0.02-0.281,0.199-0.525,0.48-0.541C313.315,292.536,313.56,292.751,313.577,293.034z"/>
						<path style="fill:#939598;" d="M315.397,292.134c0.018,0.283-0.196,0.529-0.482,0.545c-0.282,0.02-0.525-0.199-0.543-0.48
							c-0.018-0.283,0.197-0.527,0.479-0.545C315.136,291.636,315.38,291.85,315.397,292.134z"/>
						<g>
							
								<path style="fill:none;stroke:#FFFFFF;stroke-width:0.8439;stroke-linecap:round;stroke-linejoin:round;stroke-miterlimit:10;" d="
								M304.505,294.077c0,0,1.539,0.047,2.483,1.615"/>
							
								<path style="fill:none;stroke:#FFFFFF;stroke-width:0.8439;stroke-linecap:round;stroke-linejoin:round;stroke-miterlimit:10;" d="
								M306.408,293.208c0,0,1.538,0.047,2.483,1.615"/>
							
								<path style="fill:none;stroke:#FFFFFF;stroke-width:0.8439;stroke-linecap:round;stroke-linejoin:round;stroke-miterlimit:10;" d="
								M308.247,292.206c0,0,1.538,0.047,2.483,1.619"/>
							
								<path style="fill:none;stroke:#FFFFFF;stroke-width:0.8439;stroke-linecap:round;stroke-linejoin:round;stroke-miterlimit:10;" d="
								M310.579,291.393c0,0,1.539,0.047,2.484,1.619"/>
							
								<path style="fill:none;stroke:#FFFFFF;stroke-width:0.8439;stroke-linecap:round;stroke-linejoin:round;stroke-miterlimit:10;" d="
								M312.324,290.515c0,0,1.536,0.047,2.481,1.617"/>
							
								<path style="fill:none;stroke:#FFFFFF;stroke-width:0.8439;stroke-linecap:round;stroke-linejoin:round;stroke-miterlimit:10;" d="
								M302.279,295.1c0,0,1.539,0.045,2.485,1.617"/>
						</g>
					</g>
				</g>
				<path style="fill:#3A4F8B;" d="M319.626,288.765c-4.26,1.869-7.893,0.162-7.893,0.162l-3.012-62.596l-0.537-49.604l23.482-2.416
					c-2.398,12.303-4.455,24.067-6.166,36.483c-0.889,6.434-2.782,14.125-3.236,20.995c0,0,1.937,17.287-0.773,38.184l-1.545,18.662
					"/>
				<g>
					<path style="fill:#FCC3A2;" d="M335.419,289.132l0.523,4.234l-14.841,5.266c0,0-2.636,0.922-0.96,2.102
						c0,0,3.221,2.223,7.974,0.049l10.146-4.564l2.456-0.9l-0.128-6.291L335.419,289.132z"/>
					<g>
						<path style="fill:#214F89;" d="M340.765,295.146l-2.611,1.16l-9.993,4.305c-4.751,2.172-7.972-0.053-7.972-0.053
							c-1.676-1.178,0.758-2.254,0.758-2.254l3.602-1.473l9.98-4.316l-0.207-1.893c0,0-0.11-0.797,0.862-0.945l2.869,0.18
							c0,0,1.117,0.287,0.816,1.17l-0.438,1.098l2.254-0.986L340.765,295.146"/>
						<path style="fill:#939598;" d="M327.349,297.974l10.878-4.805l0.204-1.045l0.438-1.098c0.301-0.883-0.816-1.17-0.816-1.17
							l-2.869-0.18c-0.973,0.148-0.862,0.945-0.862,0.945l0.207,1.893l-9.98,4.316l-1.985,0.811
							C322.563,297.642,323.987,299.567,327.349,297.974z"/>
						<path style="fill:#EBEBEC;" d="M319.599,299.671c0,0-0.347,0.914,0.441,1.955c0,0,3.61,2.572,7.908,0.432l12.895-5.637
							l-0.078-1.275l-13.973,5.584C326.792,300.729,322.329,302.388,319.599,299.671z"/>
						<path style="fill:#939598;" d="M327.058,298.708c0.02,0.283-0.197,0.527-0.478,0.543c-0.285,0.018-0.527-0.197-0.545-0.48
							c-0.018-0.285,0.197-0.527,0.482-0.547C326.798,298.208,327.042,298.425,327.058,298.708z"/>
						<path style="fill:#939598;" d="M329.288,297.735c0.019,0.281-0.196,0.527-0.481,0.545c-0.282,0.018-0.526-0.199-0.544-0.482
							c-0.016-0.281,0.197-0.525,0.481-0.541C329.028,297.237,329.271,297.454,329.288,297.735z"/>
						<path style="fill:#939598;" d="M331.19,296.843c0.016,0.283-0.199,0.527-0.482,0.543c-0.283,0.018-0.527-0.195-0.543-0.479
							c-0.018-0.283,0.197-0.525,0.48-0.543C330.927,296.347,331.171,296.561,331.19,296.843z"/>
						<path style="fill:#939598;" d="M333.108,295.925c0.016,0.283-0.199,0.527-0.482,0.545s-0.527-0.197-0.544-0.48
							c-0.018-0.283,0.197-0.529,0.479-0.545C332.845,295.427,333.091,295.642,333.108,295.925z"/>
						<path style="fill:#939598;" d="M335.354,294.964c0.02,0.285-0.195,0.529-0.478,0.547c-0.281,0.018-0.527-0.199-0.547-0.482
							c-0.017-0.281,0.199-0.525,0.482-0.543C335.095,294.468,335.339,294.683,335.354,294.964z"/>
						<path style="fill:#939598;" d="M337.175,294.065c0.017,0.283-0.197,0.527-0.482,0.545c-0.281,0.018-0.524-0.199-0.542-0.48
							c-0.019-0.283,0.196-0.529,0.48-0.545C336.914,293.565,337.157,293.782,337.175,294.065z"/>
						<g>
							
								<path style="fill:none;stroke:#FFFFFF;stroke-width:0.8439;stroke-linecap:round;stroke-linejoin:round;stroke-miterlimit:10;" d="
								M326.282,296.007c0,0,1.539,0.047,2.484,1.617"/>
							
								<path style="fill:none;stroke:#FFFFFF;stroke-width:0.8439;stroke-linecap:round;stroke-linejoin:round;stroke-miterlimit:10;" d="
								M328.185,295.14c0,0,1.54,0.047,2.483,1.615"/>
							
								<path style="fill:none;stroke:#FFFFFF;stroke-width:0.8439;stroke-linecap:round;stroke-linejoin:round;stroke-miterlimit:10;" d="
								M330.024,294.138c0,0,1.537,0.047,2.484,1.617"/>
							
								<path style="fill:none;stroke:#FFFFFF;stroke-width:0.8439;stroke-linecap:round;stroke-linejoin:round;stroke-miterlimit:10;" d="
								M332.358,293.323c0,0,1.537,0.049,2.482,1.619"/>
							
								<path style="fill:none;stroke:#FFFFFF;stroke-width:0.8439;stroke-linecap:round;stroke-linejoin:round;stroke-miterlimit:10;" d="
								M334.101,292.446c0,0,1.537,0.047,2.483,1.615"/>
							
								<path style="fill:none;stroke:#FFFFFF;stroke-width:0.8439;stroke-linecap:round;stroke-linejoin:round;stroke-miterlimit:10;" d="
								M324.058,297.032c0,0,1.538,0.047,2.484,1.615"/>
						</g>
					</g>
				</g>
				<g>
					<path style="fill:#FCC3A2;" d="M313.642,287.2l0.523,4.236l-14.84,5.266c0,0-2.636,0.92-0.961,2.1c0,0,3.219,2.223,7.973,0.049
						l10.145-4.563l2.458-0.9l-0.13-6.293L313.642,287.2z"/>
					<g>
						<path style="fill:#214F89;" d="M318.985,293.214l-2.609,1.158l-9.994,4.307c-4.752,2.172-7.969-0.051-7.969-0.051
							c-1.679-1.18,0.755-2.256,0.755-2.256l3.6-1.471l9.982-4.318l-0.207-1.891c0,0-0.11-0.797,0.862-0.947l2.869,0.18
							c0,0,1.117,0.287,0.814,1.168l-0.437,1.1l2.255-0.986L318.985,293.214"/>
						<path style="fill:#939598;" d="M305.57,296.042l10.878-4.803l0.204-1.047l0.437-1.1c0.303-0.881-0.814-1.168-0.814-1.168
							l-2.869-0.18c-0.973,0.15-0.862,0.947-0.862,0.947l0.207,1.891l-9.982,4.318l-1.982,0.809
							C300.786,295.71,302.208,297.636,305.57,296.042z"/>
						<path style="fill:#EBEBEC;" d="M297.819,297.741c0,0-0.344,0.912,0.441,1.953c0,0,3.612,2.572,7.91,0.432l12.895-5.635
							l-0.08-1.277l-13.971,5.584C305.015,298.798,300.552,300.456,297.819,297.741z"/>
						<path style="fill:#939598;" d="M305.282,296.774c0.016,0.283-0.198,0.529-0.48,0.545c-0.285,0.018-0.527-0.195-0.545-0.479
							c-0.018-0.285,0.195-0.529,0.482-0.547C305.021,296.276,305.264,296.491,305.282,296.774z"/>
						<path style="fill:#939598;" d="M307.511,295.804c0.018,0.281-0.197,0.527-0.481,0.545c-0.282,0.018-0.526-0.197-0.544-0.48
							c-0.017-0.283,0.199-0.527,0.48-0.545C307.25,295.306,307.493,295.521,307.511,295.804z"/>
						<path style="fill:#939598;" d="M309.412,294.913c0.018,0.281-0.198,0.525-0.482,0.543c-0.283,0.018-0.525-0.197-0.545-0.48
							c-0.016-0.283,0.197-0.525,0.481-0.543C309.149,294.415,309.393,294.63,309.412,294.913z"/>
						<path style="fill:#939598;" d="M311.33,293.993c0.018,0.283-0.199,0.527-0.482,0.545c-0.283,0.016-0.527-0.197-0.545-0.48
							c-0.018-0.283,0.199-0.529,0.481-0.545C311.067,293.495,311.313,293.712,311.33,293.993z"/>
						<path style="fill:#939598;" d="M313.577,293.034c0.018,0.283-0.197,0.527-0.479,0.545c-0.281,0.017-0.528-0.197-0.544-0.483
							c-0.02-0.281,0.199-0.525,0.48-0.541C313.315,292.536,313.56,292.751,313.577,293.034z"/>
						<path style="fill:#939598;" d="M315.397,292.134c0.018,0.283-0.196,0.529-0.482,0.545c-0.282,0.02-0.525-0.199-0.543-0.48
							c-0.018-0.283,0.197-0.527,0.479-0.545C315.136,291.636,315.38,291.85,315.397,292.134z"/>
						<g>
							
								<path style="fill:none;stroke:#FFFFFF;stroke-width:0.8439;stroke-linecap:round;stroke-linejoin:round;stroke-miterlimit:10;" d="
								M304.505,294.077c0,0,1.539,0.047,2.483,1.615"/>
							
								<path style="fill:none;stroke:#FFFFFF;stroke-width:0.8439;stroke-linecap:round;stroke-linejoin:round;stroke-miterlimit:10;" d="
								M306.408,293.208c0,0,1.538,0.047,2.483,1.615"/>
							
								<path style="fill:none;stroke:#FFFFFF;stroke-width:0.8439;stroke-linecap:round;stroke-linejoin:round;stroke-miterlimit:10;" d="
								M308.247,292.206c0,0,1.538,0.047,2.483,1.619"/>
							
								<path style="fill:none;stroke:#FFFFFF;stroke-width:0.8439;stroke-linecap:round;stroke-linejoin:round;stroke-miterlimit:10;" d="
								M310.579,291.393c0,0,1.539,0.047,2.484,1.619"/>
							
								<path style="fill:none;stroke:#FFFFFF;stroke-width:0.8439;stroke-linecap:round;stroke-linejoin:round;stroke-miterlimit:10;" d="
								M312.324,290.515c0,0,1.536,0.047,2.481,1.617"/>
							
								<path style="fill:none;stroke:#FFFFFF;stroke-width:0.8439;stroke-linecap:round;stroke-linejoin:round;stroke-miterlimit:10;" d="
								M302.279,295.1c0,0,1.539,0.045,2.485,1.617"/>
						</g>
					</g>
				</g>
				<path style="fill:#3C698B;" d="M311.54,284.897c0,0-0.427-0.023-0.385,0.522l0.252,2.783c0,0-0.073,0.566,0.326,0.725
					c0,0,3.168,1.867,8.213-0.293c0,0,0.541-0.133,0.529-0.77l-0.055-2.635c0,0,0.17-0.779-0.498-0.742
					C319.923,284.487,316.624,286.067,311.54,284.897z"/>
				<path style="fill:#D1D3D4;" d="M322.179,206.704c-1.328-9.246-0.645-5.934-1.617-11.753
					c-2.048-12.235-7.277-7.428-12.279-17.538l23.103-2.077l-6.565,39.553C323.059,211.778,322.429,208.444,322.179,206.704z"/>
				<path style="fill:#3565A1;" d="M311.54,284.897c0,0-0.427-0.023-0.385,0.522l0.252,2.783c0,0-0.073,0.566,0.326,0.725
					c0,0,3.168,1.867,8.213-0.293c0,0,0.541-0.133,0.529-0.77l-0.055-2.635c0,0,0.17-0.779-0.498-0.742
					C319.923,284.487,316.624,286.067,311.54,284.897z"/>
				<g>
					<path style="fill:#3A4F8B;" d="M341.265,292.69c0.516-6.221,1.059-11.066,1.573-17.287c2.712-20.896-3.402-40.846-3.402-40.846
						l0.233-8.09l6.36-37.991c2.561-12.345-2.399-21.676-2.399-21.676l-22.687,0.463l4.29,56.805l0.717,7.778l7.102,61.139
						c0,0,3.635,1.707,7.893-0.162"/>
					<path style="fill:#3565A1;" d="M332.858,288.956c0,0-0.427-0.023-0.385,0.522l0.254,2.781c0,0-0.074,0.568,0.324,0.727
						c0,0,3.168,1.869,8.213-0.295c0,0,0.543-0.133,0.529-0.768l-0.054-2.635c0,0,0.169-0.777-0.499-0.742
						C341.241,288.546,337.941,290.126,332.858,288.956z"/>
				</g>
				<path style="fill:#F4B78E;" d="M325.212,110.572c-1.678-0.762-3.518-1.611-5.4-2.164c-1.199-0.353-2.416-0.589-3.615-0.603
					c-2.852-0.038-3.764,2.969-4.229,5.259c-0.269,1.324-0.407,2.671-0.64,4.003c-0.262,1.502-1.385,2.95-1.566,4.354
					c0,0.002-4.866,8.638-1.291,14.604l4.513,5.809l-3.77,32.006c19.985,8.01,36.252,3.243,36.252,3.243
					c2.078-7.491-4.582-23.993-2.879-19.127c0.736,2.101-1.73-4.573-1.385-7.628c0.604-5.297,5.147-15.189,5.58-20.636
					c0.342-4.268,1.23-6.283-1.25-8.161c-3.022-2.287-7.232-4.841-10.258-6.127L325.212,110.572z"/>
				<rect x="325.212" y="100.537" style="fill:#F4B78E;" width="10.061" height="20.267"/>
				<path style="opacity:0.5;fill:#F4B78E;" d="M325.212,111.289v-10.752h10.06v6.121
					C335.272,106.658,333.507,107.805,325.212,111.289z"/>
				<path style="fill:#F4B78E;" d="M340.127,102.053c7.277-5.071,10.405-25.453-3.233-30.632
					c-9.883-3.753-20.969,4.112-18.785,14.881c0.482,2.379-0.775,4.658-1.008,6.999c-0.371,3.72,0.332,7.237,2.486,12.313
					c1.656,3.903,7.92,1.436,11.227,0.602C334.128,105.379,337.319,104.008,340.127,102.053z"/>
				<path style="fill:#9A2B6F;" d="M345.53,121.531c2.48,1.878,1.592,3.893,1.25,8.161c-0.434,5.447-4.977,15.339-5.58,20.636
					c-0.346,3.055,2.121,9.729,1.385,7.628c-1.703-4.866,7.518,15.956,5.44,23.448c0,0-26.867,9.277-39.84-4.678l4.344-34.545
					l-4.059-6.156c-3.575-5.967,1.291-14.603,1.291-14.604c0.182-1.404,1.305-2.852,1.566-4.354c0.233-1.332,0.371-2.679,0.64-4.003
					c0.466-2.29,1.378-5.297,4.229-5.259c1.199,0.014,2.416,0.25,3.615,0.603c0,0,3.217,0.956,4.938,1.954
					c0,0-2.668,4.099,2.44,6.579c0,0,5.541,3.258,8.734-1.25C335.923,115.691,343.38,119.153,345.53,121.531z"/>
				<path style="fill:#4B140D;" d="M337.919,91.929c-0.442-0.384-0.969-0.695-1.242-1.182c-2.623-4.652-3.17-11.51-3.17-11.51
					l8.285-5.749c0,0,11.854,8.006,3.326,23.085l-3.953,5.184c-0.948,0.704-2.022,1.259-3.145,1.657
					c-0.969-6.478-0.334-2.876,0.373-8.271C338.393,95.143,339.159,93.11,337.919,91.929z"/>
				<path style="fill:#311A09;" d="M317.452,90.746c0,0-2.396-10.417-1.154-15.007c3.727-8.638,14.782-7.858,14.782-7.858
					c9.336,0.623,10.712,5.608,10.712,5.608l-8.285,5.75c-0.721-2.389-3.662-3.175-5.779-3.525
					c-5.586-0.921-4.723,3.592-9.703,7.667c-0.007,0.007,0.185,4.385,0.185,4.385S317.886,89.723,317.452,90.746z"/>
				<path style="fill:#D1D3D4;" d="M312.575,142.262l-4.051-6.146c-3.568-5.956,1.287-14.574,1.287-14.574
					c0.182-1.404,1.304-2.846,1.565-4.346c0.23-1.33,0.37-2.673,0.638-3.996c0.186-0.913,0.445-1.935,0.867-2.837
					c0.316,3.336,0.146,6.532-0.875,9.935c-0.977,3.259-2.457,6.646-2.307,10.108c0.107,2.462,0.533,5.269,3.05,6.389
					c2.686,1.196,5.708,1.851,8.485,2.847c5.536,1.988,13.131,4.751,18.598,1.053c3.921-2.65,5.478-7.186,6.982-11.497
					c-0.018,0.197-0.037,0.395-0.053,0.6c-0.436,5.435-4.971,15.307-5.569,20.596c-0.268,2.375,1.164,6.941,1.463,7.852
					c-0.02-0.063-0.046-0.137-0.083-0.239c-1.695-4.857,7.506,15.925,5.432,23.4c0,0-26.871,9.251-39.82-4.679L312.575,142.262z"/>
				<g>
					<path style="fill:#F4B78E;" d="M336.811,96.875c1.445,0.786,3.467-0.141,4.514-2.069c1.049-1.927,0.727-4.128-0.719-4.913
						c-1.446-0.787-3.467,0.141-4.516,2.068C335.044,93.891,335.366,96.09,336.811,96.875z"/>
					<path style="fill:#DD957C;" d="M337.128,94.75c0.5-0.108,0.451-0.345,0.514-0.765c0.047-0.312,0.195-0.533,0.398-0.766
						c0.227-0.254,0.44-0.248,0.65-0.177c0.18-0.008,0.374,0.023,0.557,0.061c0.59,0.119,0.817-0.096,0.757-0.751
						c-0.069-0.751-0.845-1.123-1.577-1.256c-0.31-0.056-0.435-0.298-0.002-0.431c1.335-0.41,2.316,0.751,2.293,2.019
						c-0.008,0.453-0.213,0.957-0.666,1.114c-0.02,0.006-0.061,0.012-0.115,0.014c-0.258,0.373-0.656,0.589-0.914,0.968
						c-0.04,0.059-0.09,0.094-0.141,0.118c-0.081,0.162-0.168,0.32-0.279,0.455c-0.344,0.414-0.902,0.011-1.326,0.089
						C336.829,95.526,336.681,94.848,337.128,94.75z"/>
				</g>
				<path style="fill:#311A09;" d="M333.534,84.768c0.902,2.263,2.456,3.128,1.115,5.491c-1.327,2.339-1.275,3.767-0.933,5.434
					c0.351,1.7,2.073,2.485,2.367,4.246c0.358,2.139-1.829,2.399-2.22,4.346c-0.502,2.506-0.357,5.493,2.994,7.005
					c0,0-5.297,3.069-0.77,6.884c2.699,2.274,4.576-0.742,5.852-1.646c1.815-1.286,1.291-0.205,3.297-0.179
					c2.432,0.034,3.164-0.397,3.313-2.84c0.137-2.224-0.253-5.895,2.412-7.008c2.17-0.908,2.963-1.692,3.986-4.332
					c0.797-2.05,0.291-4.101-0.689-6.003c-0.908-1.76-2.718-3.059-2.82-5.177c-0.096-1.96,0.543-4.001-0.156-5.909
					c-0.535-1.463-1.852-2.597-2.951-3.639c-0.964-0.913-2.699-3.051-3.037-4.338c-1.248-4.761-4.158-5.177-5.445-6.258
					c-1.634-1.371-2.734,1.837-4.576,2.646C334.691,78.398,331.411,79.455,333.534,84.768z"/>
			</g>
		</g>
		<g>
			<path style="fill:#F4B78E;" d="M352.188,166.881c2.369-5.883,0.846-10.297,0.846-10.297l-3.834-27.998
				c-1.451-9.286-8.094-7.38-8.094-7.38c-7.139,1.23-3.904,9.99-3.904,9.99l7.068,30.505
				C344.27,161.701,344.574,169.859,352.188,166.881z"/>
			<g>
				<path style="fill:#F8B78F;" d="M311.42,186.295c-0.547-0.412-1.93,0.908-3.453-0.637c1.564-1.627,2.57-2.48,3.08-2.758
					c0.754-0.41,1.102-0.154,1.896,0.186c0.643,0.271,1.213,0.766,1.873,1.01c0.668,0.244,2.465-0.717,3.254-0.947l0.629,0.703
					c0,0-2.313,2.941-4.445,4.791L311.42,186.295z"/>
				<path style="fill:#F8B78F;" d="M308.06,182.539c1.149-0.68,3.498-2.096,3.807-2.072l2.965-0.15l1.803-0.666
					c0.689,1.875,1.436,3.498,1.436,3.498c-2.299,1.215-2.818,1.563-2.818,1.563s-1.225,0.611-3.326-1.039l-1.039-0.596
					C310.887,183.076,308.816,184.207,308.06,182.539z"/>
				<path style="fill:#F8B78F;" d="M314.859,188.152c0.637-0.566-0.039-1-0.039-1c-0.52-0.619-1.006-0.143-1.006-0.143l0.264-0.24
					c0.145-0.428-0.438-0.764-0.438-0.764c-0.539-0.484-1.035,0.088-1.035,0.088l0.467-0.477c0.188-0.377-0.373-0.799-0.373-0.799
					c-0.693-0.57-1.125-0.006-1.125-0.006l-0.217,0.193c0,0-0.787-1.711-2.568-0.084l-0.822,0.736c0,0,0.209,0.965,1.674,0.967
					c0,0,0.297,1.232,1.449,1.039c0,0,0.377,0.885,1.326,0.803c0,0,0.518,0.951,1.178,0.674L314.859,188.152z"/>
			</g>
			<path style="fill:#F4B78E;" d="M351.871,167.535l-34.25,17.033l-2.488-4.063l29.859-20.438c0,0,3.377-2.668,5.545,0.332
				C350.537,160.4,354.121,163.352,351.871,167.535z"/>
		</g>
	</g>
	<g>
		<polygon style="fill:#A4DEF6;" points="378.199,237.263 222.605,132.233 87.109,188.358 242.693,293.388 		"/>
		<polygon style="fill:#4F4D92;" points="242.99,155.891 222.801,142.124 107.473,189.897 127.654,203.663 		"/>
		<polygon style="fill:#2E4B7F;" points="87.109,188.358 242.693,293.388 242.693,311.243 87.109,205.458 		"/>
		<polygon style="fill:#446BB0;" points="242.693,311.243 378.199,256.245 378.199,237.263 242.693,293.388 		"/>
		<g>
			<g>
				<path style="fill:#4F4D92;" d="M191.129,215.065c0.129-0.15,0.109-0.357,0-0.545c0.129-0.154,0.109-0.346,0-0.541
					c0.129-0.162,0.109-0.35,0-0.557c0.129-0.16,0.109-0.346,0-0.547c0.129-0.146,0.109-0.344,0-0.539
					c0.129-0.162,0.109-0.359,0-0.557c0.129-0.16,0.109-0.346,0-0.537c0.129-0.156,0.109-0.359,0-0.549
					c0.244-0.311,0.033-0.758-0.604-1.115l-17.191-11.41c-0.822-0.467-2.002-0.619-2.648-0.346l-17.775,7.518
					c-0.484,0.207-0.836,0.729-0.617,1.166c-0.061,0.186-0.088,0.373,0,0.557c-0.061,0.184-0.088,0.371,0,0.555
					c-0.061,0.16-0.088,0.371,0,0.531c-0.061,0.186-0.088,0.369,0,0.557c-0.061,0.184-0.088,0.369,0,0.555
					c-0.061,0.16-0.088,0.365,0,0.531c-0.061,0.186-0.088,0.369,0,0.555c-0.061,0.174-0.088,0.371,0,0.537
					c-0.121,0.336-0.055,0.695,0.391,0.949l17.359,11.676c0.813,0.475,2.002,0.635,2.645,0.348l18.15-8.018
					C191.229,215.667,191.299,215.372,191.129,215.065z"/>
				<path style="fill:#906EB0;" d="M190.525,209.579c0.814,0.469,0.963,1.059,0.313,1.336l-18.139,8.014
					c-0.652,0.277-1.838,0.127-2.656-0.336l-17.35-11.68c-0.82-0.469-0.43-1.295,0.217-1.572l17.775-7.518
					c0.646-0.273,1.834-0.121,2.648,0.346L190.525,209.579z"/>
			</g>
			<g>
				<path style="fill:#4F4D92;" d="M178.283,201.143l17.35,11.686c0.82,0.457,2.012,0.617,2.658,0.334l18.146-8.016
					c0.395-0.166,0.461-0.459,0.293-0.773c0.117-0.156,0.105-0.348,0-0.543c0.117-0.168,0.105-0.354,0-0.549
					c0.117-0.162,0.105-0.353,0-0.545c0.117-0.162,0.105-0.352,0-0.557c0.117-0.16,0.105-0.344,0-0.541
					c0.117-0.162,0.105-0.348,0-0.543c0.117-0.164,0.105-0.354,0-0.545c0.117-0.168,0.105-0.357,0-0.555
					c0.244-0.307,0.035-0.75-0.611-1.109l-17.195-11.408c-0.813-0.469-1.994-0.621-2.645-0.354l-17.777,7.516
					c-0.49,0.215-0.82,0.74-0.604,1.182c-0.074,0.18-0.092,0.369,0,0.547c-0.074,0.18-0.092,0.373,0,0.545
					c-0.074,0.184-0.092,0.365,0,0.551c-0.074,0.178-0.092,0.369,0,0.547c-0.074,0.18-0.092,0.365,0,0.539
					c-0.074,0.19-0.092,0.369,0,0.557c-0.074,0.178-0.092,0.367,0,0.541c-0.074,0.186-0.092,0.371,0,0.545
					C177.773,200.53,177.84,200.887,178.283,201.143z"/>
				<path style="fill:#80B6E2;" d="M216.119,198.887c0.824,0.457,0.965,1.053,0.318,1.34l-18.146,8.016
					c-0.646,0.275-1.826,0.121-2.652-0.334l-17.355-11.693c-0.816-0.463-0.418-1.297,0.227-1.574l17.779-7.516
					c0.646-0.268,1.822-0.115,2.645,0.354L216.119,198.887z"/>
			</g>
			<g>
				<path style="fill:#4F4D92;" d="M241.713,188.182l-17.186-11.402c-0.818-0.461-1.998-0.631-2.648-0.351l-17.777,7.527
					c-0.482,0.197-0.822,0.729-0.611,1.174c-0.063,0.168-0.082,0.371,0,0.539c-0.063,0.184-0.082,0.369,0,0.553
					c-0.063,0.18-0.082,0.373,0,0.551c-0.063,0.18-0.082,0.371,0,0.537c-0.063,0.186-0.082,0.371,0,0.555
					c-0.063,0.176-0.082,0.365,0,0.545c-0.063,0.186-0.082,0.375,0,0.557c-0.063,0.172-0.082,0.355,0,0.537
					c-0.123,0.328-0.061,0.688,0.395,0.943l17.355,11.689c0.818,0.463,2.004,0.609,2.645,0.336l18.146-8.02
					c0.395-0.174,0.467-0.469,0.295-0.77c0.119-0.168,0.105-0.348,0-0.555c0.119-0.162,0.105-0.348,0-0.545
					c0.119-0.156,0.105-0.346,0-0.543c0.119-0.162,0.105-0.348,0-0.555c0.119-0.156,0.105-0.346,0-0.543
					c0.119-0.156,0.105-0.348,0-0.545c0.119-0.148,0.105-0.346,0-0.555c0.119-0.156,0.105-0.346,0-0.543
					C242.564,188.987,242.357,188.549,241.713,188.182z"/>
				<path style="fill:#80B6E2;" d="M241.721,188.182c0.813,0.469,0.955,1.07,0.311,1.348l-18.143,8.02
					c-0.645,0.285-1.83,0.123-2.648-0.34l-17.355-11.682c-0.82-0.473-0.42-1.305,0.217-1.572l17.787-7.527
					c0.641-0.279,1.826-0.109,2.639,0.351L241.721,188.182z"/>
			</g>
			<g>
				<path style="fill:#4F4D92;" d="M267.314,177.493l-17.189-11.398c-0.82-0.475-2.008-0.623-2.648-0.353l-17.771,7.523
					c-0.488,0.197-0.83,0.723-0.611,1.172c-0.07,0.176-0.092,0.361,0,0.547c-0.07,0.184-0.092,0.369,0,0.555
					c-0.07,0.174-0.092,0.357,0,0.541c-0.07,0.176-0.092,0.359,0,0.545c-0.07,0.174-0.092,0.371,0,0.543
					c-0.07,0.176-0.092,0.371,0,0.555c-0.07,0.174-0.092,0.359,0,0.545c-0.07,0.174-0.092,0.371,0,0.543
					c-0.129,0.318-0.07,0.684,0.387,0.943l17.357,11.674c0.816,0.475,1.998,0.625,2.645,0.348l18.15-8.014
					c0.395-0.18,0.461-0.473,0.289-0.775c0.127-0.162,0.111-0.346,0-0.549c0.127-0.156,0.111-0.342,0-0.551
					c0.127-0.15,0.111-0.348,0-0.543c0.127-0.156,0.111-0.348,0-0.549c0.127-0.156,0.111-0.342,0-0.539
					c0.127-0.162,0.111-0.359,0-0.555c0.127-0.162,0.111-0.346,0-0.549c0.127-0.154,0.111-0.342,0-0.545
					C268.168,178.29,267.953,177.85,267.314,177.493z"/>
				<path style="fill:#80B6E2;" d="M267.324,177.493c0.811,0.461,0.951,1.051,0.309,1.34l-18.15,8.025
					c-0.646,0.277-1.826,0.117-2.645-0.357l-17.35-11.68c-0.824-0.459-0.43-1.297,0.217-1.557l17.775-7.523
					c0.646-0.27,1.824-0.121,2.645,0.353L267.324,177.493z"/>
			</g>
		</g>
		<g>
			<g>
				<path style="fill:#4F4D92;" d="M216.273,233.567c0.127-0.15,0.107-0.357,0-0.545c0.127-0.154,0.107-0.346,0-0.543
					c0.127-0.16,0.107-0.348,0-0.555c0.127-0.16,0.107-0.348,0-0.549c0.127-0.145,0.107-0.342,0-0.539
					c0.127-0.16,0.107-0.357,0-0.555c0.127-0.16,0.107-0.348,0-0.537c0.127-0.156,0.107-0.359,0-0.549
					c0.246-0.314,0.035-0.758-0.598-1.117L198.48,216.67c-0.822-0.467-2.002-0.619-2.648-0.346l-17.779,7.516
					c-0.482,0.209-0.828,0.73-0.613,1.168c-0.066,0.186-0.092,0.371,0,0.555c-0.066,0.186-0.092,0.371,0,0.555
					c-0.066,0.162-0.092,0.373,0,0.533c-0.066,0.186-0.092,0.371,0,0.555c-0.066,0.186-0.092,0.372,0,0.555
					c-0.066,0.162-0.092,0.365,0,0.531c-0.066,0.188-0.092,0.373,0,0.557c-0.066,0.172-0.092,0.371,0,0.537
					c-0.121,0.336-0.055,0.695,0.385,0.949l17.361,11.676c0.813,0.473,2.006,0.635,2.648,0.346l18.146-8.016
					C216.375,234.169,216.447,233.872,216.273,233.567z"/>
				<path style="fill:#80B6E2;" d="M215.676,228.079c0.811,0.469,0.955,1.059,0.305,1.336l-18.135,8.014
					c-0.652,0.277-1.834,0.129-2.66-0.334l-17.346-11.682c-0.824-0.469-0.43-1.295,0.213-1.572l17.779-7.516
					c0.646-0.274,1.838-0.121,2.648,0.346L215.676,228.079z"/>
			</g>
			<g>
				<path style="fill:#4F4D92;" d="M203.428,219.643l17.352,11.686c0.82,0.457,2.012,0.617,2.654,0.336l18.15-8.016
					c0.395-0.166,0.461-0.461,0.291-0.773c0.119-0.156,0.107-0.346,0-0.545c0.119-0.168,0.107-0.352,0-0.549
					c0.119-0.162,0.107-0.353,0-0.543c0.119-0.162,0.107-0.351,0-0.557c0.119-0.162,0.107-0.346,0-0.543
					c0.119-0.16,0.107-0.348,0-0.543c0.119-0.162,0.107-0.352,0-0.543c0.119-0.168,0.107-0.359,0-0.555
					c0.242-0.309,0.035-0.752-0.609-1.109l-17.191-11.41c-0.813-0.469-2.002-0.619-2.648-0.354l-17.777,7.518
					c-0.49,0.215-0.82,0.74-0.605,1.18c-0.074,0.18-0.092,0.369,0,0.549c-0.074,0.18-0.092,0.369,0,0.543
					c-0.074,0.186-0.092,0.365,0,0.551c-0.074,0.18-0.092,0.369,0,0.549c-0.074,0.18-0.092,0.365,0,0.539
					c-0.074,0.189-0.092,0.369,0,0.555c-0.074,0.18-0.092,0.369,0,0.541c-0.074,0.188-0.092,0.373,0,0.545
					C202.92,219.03,202.988,219.387,203.428,219.643z"/>
				<path style="fill:#80B6E2;" d="M241.266,217.389c0.82,0.455,0.963,1.051,0.318,1.34l-18.15,8.016
					c-0.643,0.277-1.822,0.119-2.645-0.338l-17.361-11.689c-0.814-0.465-0.418-1.297,0.227-1.574l17.781-7.518
					c0.643-0.266,1.826-0.115,2.645,0.354L241.266,217.389z"/>
			</g>
			<g>
				<path style="fill:#4F4D92;" d="M266.859,206.684l-17.186-11.402c-0.822-0.465-2.004-0.631-2.645-0.353l-17.785,7.529
					c-0.479,0.197-0.822,0.729-0.607,1.174c-0.066,0.168-0.086,0.369,0,0.537c-0.066,0.186-0.086,0.371,0,0.555
					c-0.066,0.18-0.086,0.371,0,0.551c-0.066,0.178-0.086,0.369,0,0.537c-0.066,0.186-0.086,0.371,0,0.555
					c-0.066,0.174-0.086,0.365,0,0.543c-0.066,0.186-0.086,0.377,0,0.555c-0.066,0.176-0.086,0.359,0,0.537
					c-0.127,0.332-0.061,0.689,0.391,0.945l17.352,11.691c0.824,0.461,2.01,0.607,2.648,0.334l18.149-8.02
					c0.396-0.172,0.467-0.467,0.293-0.768c0.119-0.17,0.109-0.348,0-0.557c0.119-0.162,0.109-0.346,0-0.543
					c0.119-0.156,0.109-0.348,0-0.543c0.119-0.164,0.109-0.348,0-0.557c0.119-0.154,0.109-0.346,0-0.543
					c0.119-0.156,0.109-0.348,0-0.543c0.119-0.15,0.109-0.348,0-0.555c0.119-0.156,0.109-0.348,0-0.545
					C267.711,207.487,267.504,207.049,266.859,206.684z"/>
				<path style="fill:#80B6E2;" d="M266.863,206.684c0.813,0.469,0.959,1.07,0.313,1.348l-18.141,8.02
					c-0.646,0.283-1.832,0.121-2.656-0.34l-17.352-11.682c-0.82-0.475-0.42-1.307,0.217-1.572l17.789-7.529
					c0.637-0.277,1.828-0.111,2.641,0.353L266.863,206.684z"/>
			</g>
			<g>
				<path style="fill:#4F4D92;" d="M292.453,195.993l-17.182-11.398c-0.82-0.475-2.006-0.623-2.65-0.352l-17.773,7.523
					c-0.482,0.197-0.828,0.723-0.611,1.172c-0.068,0.174-0.092,0.359,0,0.545c-0.068,0.184-0.092,0.369,0,0.555
					c-0.068,0.174-0.092,0.359,0,0.543c-0.068,0.174-0.092,0.359,0,0.545c-0.068,0.174-0.092,0.369,0,0.543
					c-0.068,0.174-0.086,0.369,0,0.555c-0.068,0.172-0.092,0.359,0,0.545c-0.068,0.174-0.092,0.369,0,0.541
					c-0.125,0.32-0.068,0.684,0.395,0.945l17.352,11.674c0.815,0.473,2,0.625,2.643,0.346l18.154-8.014
					c0.395-0.18,0.459-0.475,0.287-0.773c0.129-0.164,0.113-0.348,0-0.551c0.129-0.154,0.113-0.342,0-0.549
					c0.129-0.152,0.113-0.348,0-0.543c0.129-0.156,0.113-0.348,0-0.551c0.129-0.154,0.113-0.342,0-0.537
					c0.129-0.162,0.113-0.359,0-0.555c0.129-0.164,0.113-0.346,0-0.549c0.129-0.156,0.113-0.344,0-0.545
					C293.314,196.79,293.103,196.35,292.453,195.993z"/>
				<path style="fill:#80B6E2;" d="M292.471,195.993c0.807,0.463,0.947,1.053,0.309,1.342l-18.154,8.025
					c-0.643,0.277-1.822,0.115-2.643-0.359l-17.352-11.68c-0.82-0.457-0.426-1.297,0.217-1.555l17.779-7.523
					c0.647-0.271,1.824-0.123,2.645,0.352L292.471,195.993z"/>
			</g>
		</g>
		<g>
			<g>
				<path style="fill:#4F4D92;" d="M245.561,252.069c0.129-0.152,0.109-0.359,0-0.545c0.129-0.156,0.109-0.346,0-0.543
					c0.129-0.162,0.109-0.348,0-0.555c0.129-0.162,0.109-0.35,0-0.551c0.129-0.145,0.109-0.34,0-0.537
					c0.129-0.162,0.109-0.359,0-0.557c0.129-0.16,0.109-0.348,0-0.535c0.129-0.158,0.109-0.359,0-0.551
					c0.248-0.311,0.037-0.756-0.6-1.115l-17.191-11.408c-0.822-0.469-2.002-0.621-2.648-0.348l-17.775,7.518
					c-0.488,0.207-0.836,0.729-0.621,1.166c-0.061,0.188-0.088,0.371,0,0.557c-0.061,0.184-0.088,0.369,0,0.555
					c-0.061,0.162-0.088,0.369,0,0.531c-0.061,0.186-0.088,0.371,0,0.557c-0.061,0.186-0.088,0.369,0,0.555
					c-0.061,0.162-0.088,0.365,0,0.529c-0.061,0.188-0.088,0.373,0,0.557c-0.061,0.176-0.088,0.371,0,0.539
					c-0.119,0.336-0.051,0.693,0.391,0.947l17.359,11.676c0.813,0.475,2.006,0.635,2.648,0.346l18.146-8.014
					C245.664,252.669,245.734,252.374,245.561,252.069z"/>
				<path style="fill:#80B6E2;" d="M244.961,246.581c0.814,0.467,0.959,1.057,0.309,1.336l-18.135,8.014
					c-0.652,0.275-1.838,0.127-2.66-0.336l-17.35-11.68c-0.82-0.469-0.426-1.297,0.221-1.572l17.775-7.518
					c0.646-0.273,1.838-0.121,2.648,0.348L244.961,246.581z"/>
			</g>
			<g>
				<path style="fill:#4F4D92;" d="M232.717,238.145l17.348,11.684c0.824,0.459,2.016,0.619,2.658,0.336l18.148-8.014
					c0.397-0.168,0.463-0.463,0.293-0.775c0.119-0.156,0.108-0.346,0-0.543c0.119-0.168,0.108-0.353,0-0.549
					c0.119-0.164,0.108-0.354,0-0.545c0.119-0.162,0.108-0.352,0-0.555c0.119-0.162,0.108-0.346,0-0.543
					c0.119-0.162,0.108-0.348,0-0.545c0.119-0.162,0.108-0.352,0-0.543c0.119-0.168,0.108-0.357,0-0.555
					c0.242-0.307,0.035-0.752-0.609-1.111l-17.195-11.407c-0.813-0.471-1.994-0.619-2.645-0.354l-17.777,7.518
					c-0.49,0.213-0.824,0.74-0.605,1.18c-0.074,0.18-0.092,0.369,0,0.549c-0.074,0.178-0.092,0.369,0,0.543
					c-0.074,0.183-0.092,0.363,0,0.551c-0.074,0.178-0.092,0.369,0,0.549c-0.074,0.178-0.092,0.363,0,0.537
					c-0.074,0.189-0.092,0.369,0,0.557c-0.074,0.178-0.092,0.369,0,0.541c-0.074,0.186-0.092,0.371,0,0.545
					C232.209,237.53,232.275,237.89,232.717,238.145z"/>
				<path style="fill:#80B6E2;" d="M270.555,235.888c0.82,0.459,0.963,1.053,0.316,1.344l-18.148,8.014
					c-0.643,0.277-1.822,0.119-2.648-0.336l-17.357-11.691c-0.814-0.465-0.418-1.297,0.227-1.572l17.781-7.518
					c0.643-0.266,1.822-0.117,2.645,0.354L270.555,235.888z"/>
			</g>
			<g>
				<path style="fill:#4F4D92;" d="M296.148,225.186l-17.186-11.404c-0.822-0.463-2.002-0.629-2.648-0.352l-17.781,7.529
					c-0.482,0.195-0.822,0.729-0.607,1.172c-0.066,0.168-0.086,0.371,0,0.539c-0.066,0.186-0.086,0.369,0,0.553
					c-0.066,0.18-0.086,0.371,0,0.551c-0.066,0.18-0.086,0.371,0,0.537c-0.066,0.186-0.086,0.371,0,0.555
					c-0.066,0.176-0.086,0.365,0,0.545c-0.066,0.186-0.086,0.375,0,0.555c-0.066,0.174-0.086,0.357,0,0.537
					c-0.127,0.33-0.065,0.689,0.391,0.945l17.355,11.69c0.82,0.463,2.006,0.609,2.645,0.336l18.148-8.02
					c0.396-0.174,0.467-0.469,0.293-0.77c0.123-0.168,0.109-0.348,0-0.555c0.123-0.162,0.109-0.348,0-0.545
					c0.123-0.156,0.109-0.346,0-0.543c0.123-0.162,0.109-0.348,0-0.555c0.123-0.156,0.109-0.346,0-0.543
					c0.123-0.156,0.109-0.348,0-0.545c0.123-0.15,0.109-0.346,0-0.555c0.123-0.156,0.109-0.346,0-0.545
					C297,225.987,296.789,225.549,296.148,225.186z"/>
				<path style="fill:#80B6E2;" d="M296.152,225.186c0.816,0.467,0.959,1.07,0.313,1.348l-18.141,8.018
					c-0.646,0.285-1.832,0.121-2.652-0.34l-17.355-11.682c-0.82-0.473-0.42-1.307,0.217-1.57l17.789-7.529
					c0.639-0.277,1.824-0.111,2.641,0.352L296.152,225.186z"/>
			</g>
			<g>
				<path style="fill:#4F4D92;" d="M321.746,214.493l-17.186-11.396c-0.82-0.475-2.006-0.625-2.652-0.352l-17.772,7.521
					c-0.484,0.197-0.828,0.723-0.607,1.174c-0.07,0.174-0.092,0.359,0,0.545c-0.07,0.184-0.092,0.369,0,0.555
					c-0.07,0.172-0.092,0.357,0,0.543c-0.07,0.174-0.092,0.359,0,0.543c-0.07,0.174-0.092,0.371,0,0.543
					c-0.07,0.174-0.092,0.371,0,0.557c-0.07,0.172-0.092,0.359,0,0.543c-0.07,0.174-0.092,0.371,0,0.543
					c-0.131,0.32-0.07,0.684,0.387,0.943l17.354,11.676c0.816,0.473,2.002,0.623,2.645,0.346l18.154-8.014
					c0.391-0.18,0.457-0.475,0.287-0.775c0.129-0.162,0.113-0.346,0-0.549c0.129-0.156,0.113-0.342,0-0.551
					c0.129-0.15,0.113-0.346,0-0.543c0.129-0.154,0.113-0.346,0-0.549c0.129-0.156,0.113-0.342,0-0.537
					c0.129-0.164,0.113-0.359,0-0.557c0.129-0.162,0.113-0.346,0-0.549c0.129-0.156,0.113-0.342,0-0.545
					C322.603,215.292,322.389,214.852,321.746,214.493z"/>
				<path style="fill:#80B6E2;" d="M321.756,214.493c0.811,0.463,0.951,1.053,0.313,1.342l-18.154,8.027
					c-0.642,0.277-1.822,0.113-2.645-0.359l-17.35-11.68c-0.82-0.457-0.43-1.297,0.217-1.557l17.779-7.521
					c0.643-0.273,1.824-0.123,2.645,0.352L321.756,214.493z"/>
			</g>
		</g>
		<g>
			<g>
				<path style="fill:#4F4D92;" d="M271.166,270.569c0.127-0.15,0.107-0.357,0-0.543c0.127-0.158,0.107-0.348,0-0.545
					c0.127-0.16,0.107-0.348,0-0.555c0.127-0.162,0.107-0.346,0-0.549c0.127-0.145,0.107-0.342,0-0.539
					c0.127-0.16,0.107-0.357,0-0.555c0.127-0.162,0.107-0.348,0-0.537c0.127-0.156,0.107-0.357,0-0.549
					c0.244-0.315,0.033-0.758-0.602-1.117l-17.195-11.408c-0.82-0.467-2.002-0.619-2.645-0.348l-17.779,7.518
					c-0.484,0.209-0.832,0.728-0.613,1.168c-0.066,0.185-0.092,0.371,0,0.555c-0.066,0.185-0.092,0.371,0,0.555
					c-0.066,0.164-0.092,0.371,0,0.533c-0.066,0.186-0.092,0.369,0,0.555c-0.066,0.185-0.092,0.369,0,0.555
					c-0.066,0.164-0.092,0.365,0,0.531c-0.066,0.188-0.092,0.371,0,0.557c-0.066,0.172-0.092,0.369,0,0.539
					c-0.123,0.334-0.055,0.693,0.385,0.947l17.361,11.674c0.813,0.475,2.002,0.637,2.648,0.348l18.146-8.016
					C271.268,271.171,271.338,270.876,271.166,270.569z"/>
				<path style="fill:#80B6E2;" d="M270.564,265.081c0.815,0.469,0.959,1.059,0.309,1.336l-18.137,8.014
					c-0.65,0.277-1.836,0.129-2.658-0.336l-17.35-11.68c-0.82-0.469-0.426-1.297,0.217-1.572l17.779-7.518
					c0.643-0.271,1.838-0.119,2.645,0.348L270.564,265.081z"/>
			</g>
			<g>
				<path style="fill:#4F4D92;" d="M258.316,256.646l17.352,11.685c0.824,0.457,2.016,0.619,2.658,0.336l18.148-8.014
					c0.393-0.17,0.459-0.465,0.293-0.775c0.119-0.156,0.107-0.348,0-0.545c0.119-0.168,0.107-0.354,0-0.547
					c0.119-0.164,0.107-0.355,0-0.545c0.119-0.162,0.107-0.352,0-0.555c0.119-0.164,0.107-0.348,0-0.545
					c0.119-0.162,0.107-0.346,0-0.543c0.119-0.162,0.107-0.352,0-0.543c0.119-0.168,0.107-0.359,0-0.555
					c0.238-0.307,0.033-0.754-0.611-1.109l-17.193-11.41c-0.811-0.469-1.998-0.617-2.645-0.354l-17.779,7.518
					c-0.488,0.213-0.818,0.74-0.604,1.182c-0.076,0.176-0.096,0.369,0,0.547c-0.076,0.18-0.096,0.369,0,0.543
					c-0.076,0.185-0.096,0.365,0,0.549c-0.076,0.18-0.096,0.373,0,0.551c-0.076,0.18-0.096,0.363,0,0.537
					c-0.076,0.191-0.096,0.371,0,0.555c-0.076,0.18-0.096,0.371,0,0.545c-0.076,0.184-0.096,0.371,0,0.543
					C257.813,256.03,257.877,256.39,258.316,256.646z"/>
				<path style="fill:#80B6E2;" d="M296.156,254.392c0.822,0.453,0.965,1.049,0.318,1.34l-18.148,8.014
					c-0.643,0.277-1.824,0.121-2.648-0.336l-17.361-11.691c-0.811-0.463-0.416-1.295,0.23-1.572l17.777-7.518
					c0.647-0.264,1.828-0.115,2.647,0.354L296.156,254.392z"/>
			</g>
			<g>
				<path style="fill:#4F4D92;" d="M321.752,243.686l-17.188-11.404c-0.82-0.461-2.002-0.629-2.642-0.352l-17.785,7.529
					c-0.482,0.197-0.822,0.729-0.607,1.172c-0.066,0.17-0.086,0.371,0,0.539c-0.066,0.186-0.086,0.369,0,0.555
					c-0.066,0.18-0.086,0.369,0,0.549c-0.066,0.18-0.086,0.371,0,0.539c-0.066,0.186-0.086,0.369,0,0.555
					c-0.066,0.174-0.086,0.363,0,0.543c-0.066,0.186-0.086,0.377,0,0.555c-0.066,0.176-0.086,0.359,0,0.537
					c-0.127,0.332-0.064,0.689,0.391,0.945l17.352,11.691c0.824,0.463,2.01,0.607,2.648,0.334l18.148-8.02
					c0.395-0.172,0.463-0.467,0.289-0.768c0.123-0.17,0.111-0.348,0-0.555c0.123-0.164,0.111-0.35,0-0.545
					c0.123-0.156,0.111-0.346,0-0.543c0.123-0.162,0.111-0.348,0-0.557c0.123-0.156,0.111-0.346,0-0.543
					c0.123-0.156,0.111-0.346,0-0.543c0.123-0.15,0.111-0.348,0-0.555c0.123-0.156,0.111-0.348,0-0.545
					C322.603,244.489,322.393,244.052,321.752,243.686z"/>
				<path style="fill:#80B6E2;" d="M321.756,243.686c0.813,0.467,0.959,1.07,0.313,1.348l-18.141,8.02
					c-0.647,0.285-1.832,0.121-2.656-0.34l-17.352-11.682c-0.82-0.475-0.422-1.309,0.217-1.572l17.789-7.529
					c0.637-0.277,1.828-0.109,2.639,0.352L321.756,243.686z"/>
			</g>
			<g>
				<path style="fill:#4F4D92;" d="M347.346,232.995l-17.182-11.397c-0.822-0.475-2.008-0.625-2.654-0.354l-17.77,7.524
					c-0.484,0.197-0.828,0.723-0.611,1.174c-0.068,0.172-0.092,0.359,0,0.543c-0.068,0.184-0.092,0.369,0,0.555
					c-0.068,0.174-0.092,0.359,0,0.545c-0.068,0.172-0.092,0.357,0,0.541c-0.068,0.174-0.092,0.371,0,0.545
					c-0.068,0.174-0.088,0.369,0,0.557c-0.068,0.172-0.092,0.357,0,0.541c-0.068,0.174-0.092,0.371,0,0.545
					c-0.129,0.318-0.068,0.682,0.395,0.943l17.35,11.674c0.816,0.475,2.002,0.625,2.645,0.346l18.15-8.014
					c0.395-0.178,0.461-0.473,0.291-0.775c0.125-0.16,0.113-0.348,0-0.549c0.125-0.156,0.113-0.342,0-0.551
					c0.125-0.148,0.113-0.344,0-0.541c0.125-0.156,0.113-0.35,0-0.551c0.125-0.156,0.113-0.34,0-0.537
					c0.125-0.162,0.113-0.357,0-0.555c0.125-0.162,0.113-0.348,0-0.549c0.125-0.156,0.113-0.342,0-0.545
					C348.205,233.792,347.992,233.352,347.346,232.995z"/>
				<path style="fill:#80B6E2;" d="M347.359,232.995c0.81,0.463,0.951,1.051,0.309,1.342l-18.15,8.027
					c-0.643,0.275-1.822,0.113-2.645-0.361l-17.35-11.68c-0.824-0.457-0.43-1.297,0.217-1.555l17.779-7.524
					c0.643-0.271,1.822-0.121,2.645,0.354L347.359,232.995z"/>
			</g>
		</g>
		<polygon style="fill:#3A366F;" points="127.654,200.149 110.676,188.567 107.473,189.897 127.654,203.663 242.99,155.891 
			239.781,153.704 		"/>
	</g>
	<g>
		<g>
			<g>
				<g>
					<polygon style="fill:#F8B78F;" points="125.665,351.932 124.983,339.85 133.145,339.85 132.469,351.932 					"/>
				</g>
				<path style="fill:#693634;" d="M124.761,355.074c4.035,1.729,8.385-0.082,8.385-0.082l14.264-5.715
					c3.084-1.986-0.917-3.389-0.917-3.389c-2.395-1.09-6.188,0.252-6.188,0.252l-7.608,1.75c-2.56,2.734-7.209,0.893-7.209,0.893
					S124.286,350.807,124.761,355.074z"/>
				<path style="fill:#EBEBEC;" d="M124.761,355.074c0,0,4.416,1.508,8.385-0.082l14.002-5.609c0,0,2.074-1.006,0.944-2.557
					c0,0,1.089,0.342,0.485,3.787c-0.359,0.545-1.67,1.25-4.235,2.445c-4.379,2.037-8.827,4.246-13.635,5.123
					c-1.322,0.238-2.776,0.223-4.083-0.115c-0.254-0.066-1.863-0.527-1.863-0.855V355.074z"/>
				<path style="fill:#582526;" d="M124.761,355.074l0.723,0.217l0.729,0.162c0.49,0.086,0.982,0.143,1.477,0.16
					c0.495,0.016,0.987-0.004,1.479-0.045c0.49-0.047,0.978-0.109,1.46-0.211c0.482-0.092,0.956-0.225,1.424-0.363
					c0.481-0.147,0.898-0.305,1.36-0.527l2.751-1.225l2.763-1.195c0.922-0.398,1.845-0.791,2.772-1.174
					c1.851-0.775,3.712-1.529,5.578-2.268l-0.052,0.025c0.311-0.164,0.6-0.361,0.787-0.592c0.191-0.229,0.248-0.469,0.11-0.754
					c-0.132-0.283-0.396-0.553-0.685-0.781c-0.292-0.223-0.611-0.428-0.944-0.615c0.375,0.084,0.739,0.213,1.089,0.391
					c0.345,0.18,0.698,0.389,0.963,0.756c0.126,0.184,0.221,0.424,0.22,0.682c0,0.256-0.093,0.498-0.214,0.695
					c-0.254,0.389-0.589,0.65-0.923,0.881l-0.014,0.008l-0.037,0.018c-1.831,0.822-3.669,1.633-5.515,2.416
					c-0.921,0.398-1.847,0.787-2.774,1.168l-2.784,1.146l-2.797,1.117c-0.452,0.189-0.984,0.365-1.471,0.482
					c-0.5,0.125-1.004,0.227-1.514,0.285c-0.508,0.07-1.021,0.1-1.532,0.113c-0.513-0.004-1.022-0.035-1.529-0.102
					c-0.505-0.07-1.003-0.174-1.492-0.313c-0.242-0.08-0.486-0.154-0.72-0.248L124.761,355.074z"/>
			</g>
		</g>
		<g>
			<g>
				<g>
					<polygon style="fill:#F8B78F;" points="96.625,345.293 95.944,333.211 104.105,333.211 103.43,345.293 					"/>
				</g>
				<path style="fill:#693634;" d="M95.721,348.438c4.036,1.727,8.385-0.084,8.385-0.084l14.263-5.715
					c3.086-1.984-0.916-3.389-0.916-3.389c-2.395-1.09-6.188,0.252-6.188,0.252l-7.609,1.752c-2.56,2.734-7.208,0.892-7.208,0.892
					S95.246,344.17,95.721,348.438z"/>
				<path style="fill:#EBEBEC;" d="M95.721,348.438c0,0,4.417,1.506,8.385-0.084l14.003-5.609c0,0,2.073-1.006,0.943-2.557
					c0,0,1.088,0.344,0.486,3.787c-0.361,0.547-1.672,1.25-4.236,2.445c-4.379,2.037-8.826,4.246-13.635,5.123
					c-1.322,0.238-2.777,0.225-4.084-0.113c-0.252-0.068-1.862-0.527-1.862-0.857V348.438z"/>
				<path style="fill:#582526;" d="M95.721,348.438l0.722,0.215l0.73,0.162c0.488,0.088,0.982,0.143,1.477,0.162
					c0.494,0.016,0.987-0.006,1.479-0.047c0.49-0.047,0.977-0.109,1.459-0.211c0.482-0.092,0.955-0.225,1.424-0.363
					c0.482-0.147,0.899-0.305,1.361-0.525l2.75-1.225l2.762-1.197c0.922-0.398,1.846-0.793,2.773-1.172
					c1.851-0.777,3.712-1.529,5.578-2.27l-0.051,0.025c0.309-0.164,0.598-0.359,0.787-0.592c0.189-0.227,0.248-0.467,0.109-0.752
					c-0.131-0.285-0.396-0.555-0.684-0.781c-0.293-0.225-0.613-0.43-0.945-0.617c0.375,0.084,0.74,0.213,1.089,0.391
					c0.345,0.18,0.698,0.391,0.963,0.756c0.126,0.186,0.22,0.426,0.22,0.682c0,0.258-0.092,0.5-0.214,0.695
					c-0.255,0.389-0.589,0.65-0.923,0.881l-0.013,0.01l-0.038,0.016c-1.83,0.822-3.668,1.631-5.516,2.416
					c-0.92,0.398-1.846,0.787-2.773,1.17l-2.784,1.145l-2.796,1.117c-0.453,0.189-0.985,0.365-1.473,0.484
					c-0.499,0.123-1.004,0.225-1.514,0.285c-0.507,0.07-1.02,0.1-1.531,0.113c-0.512-0.006-1.023-0.037-1.528-0.103
					c-0.507-0.068-1.005-0.174-1.493-0.313c-0.242-0.08-0.485-0.154-0.719-0.248L95.721,348.438z"/>
			</g>
		</g>
		<path style="fill:#5BBFDB;" d="M116.257,240.67l-17.99-9.662l0.543,45.246l-3.151,65.857c4.182,3.523,10.253-0.283,10.253-0.283
			l9.606-60.969L116.257,240.67z"/>
		<path style="fill:#5BBFDB;" d="M136.497,240.525l0.209,39.264l-1.973,66.625c0,0-4.162,4.115-11.611,1.82l-5.656-66.666
			l-1.209-44.623L136.497,240.525z"/>
		<path style="fill:#5BBFDB;" d="M98.496,226.081c-0.847,4.143,0.308,9.958,1.47,13.963c2.523,8.701,15.283,13.752,23.023,15.209
			c0,0,14.394,0.842,13.715-20.287L98.496,226.081z"/>
		<path style="fill:#F4B78E;" d="M90.347,192.143c0,0,5.1,6.007,15.242,20.501l-1.752,2.975c0,0-17.373-8.752-22.914-18.573
			L90.347,192.143z"/>
		<path style="fill:#F4B78E;" d="M93.278,188.549c0,0-4.623,9.092-9.504,9.554c0,0-2.709,0.172-3.252-1.868
			c0,0-1.9-2.44,3.256-14.483L93.278,188.549z"/>
		<path style="fill:#5A4B70;" d="M103.115,153.486c0,0-5.754-0.767-8.724,5.061l-12.157,24.117c0,0,1.269,6.428,13.212,7.672
			l11.028-22.088C106.475,168.247,109.999,156.522,103.115,153.486z"/>
		<path style="fill:#D1D3D4;" d="M82.693,181.752c0.813,2.993,3.114,4.627,6.056,5.938c1.313,0.583,3.473,1.204,4.799,0.292
			c2.139-1.472,1.603-6.207,1.746-8.42c0.239-3.683,0.432-7.37,0.467-11.06c0.035-3.39-0.16-6.914,1.094-10.135
			c0.895-2.298,2.695-3.819,4.838-4.881c0.863-0.075,1.423,0,1.423,0c6.884,3.036,3.359,14.761,3.359,14.761l-11.028,22.088
			c-11.943-1.244-13.212-7.672-13.212-7.672L82.693,181.752z"/>
		<polygon style="fill:#F4B78E;" points="128.461,151.947 125.384,166.126 115.427,160.835 117.737,148.818 		"/>
		<path style="fill:#F4B78E;" d="M128.419,153.439c-2.625-0.237-5.294-0.613-7.83-1.226c-3.492-0.844-6.278-6.287-8.756-8.865
			c-1.579-1.646-2.544-4.032-3.627-6.037c-3.424-6.329-3.082-13.035,1.074-19.259c2.046-3.062,6.166-5.842,9.741-6.193
			c7.166-0.707,15.837,2.947,19.594,9.788c2.284,4.161-0.884,9.487,2.714,13.117c0,0,3.241,1.99,0.459,4.017
			c0,0-2.898,1.424-3.221,3.476c0,0-0.175,0.511-0.48,4.292c-0.2,1.269,0.102,3.961-0.756,5.025
			c-1.75,2.171-4.932,2.168-7.459,1.984C129.39,153.523,128.905,153.484,128.419,153.439z"/>
		<path style="fill:#5A4B70;" d="M138.968,240.67l-0.154-65.06c0.578-3.959-0.531-6.311-2.367-7.821
			c-1.768-1.454-8.057-4.946-10.068-6.037c0,0-1.609,0.619-6.186-1.485c0,0-3.342-1.299-4.146-3.279
			c-2.316-0.744-7.383-2.76-11.139-3.391c-5.322-0.894-5.596,4.099-6.184,8.032c0,0-2.359,35.577-1.269,67.189
			C97.455,228.818,113.742,243.941,138.968,240.67z"/>
		<path style="fill:#D1D3D4;" d="M138.814,175.61c0.578-3.959-0.531-6.311-2.367-7.821c-0.673-0.555-2.002-1.403-3.5-2.303
			c0.762,1.693,0.518,3.548-0.764,5.622c-0.896,1.453-1.947,2.831-2.704,4.366c-0.994,2.014-1.216,4.115-1.39,6.333
			c-0.394,5.048-0.451,10.186-0.12,15.241c0.46,7.011,2.522,13.878,2.455,20.935c-0.063,6.621-2.446,12.78-8.608,15.956
			c-3.353,1.727-6.938,2.605-10.614,3.102c7.044,2.887,16.511,5.092,27.767,3.631L138.814,175.61z"/>
		<path style="fill:#8CCBDD;" d="M135.275,347.297c-1.601,1.24-4.863,3.672-12.039,2.152c0,0-0.614-0.297-0.696-1.037l-0.277-5.012
			c0,0-0.027-1.307,0.74-0.977c0,0,4.943,2.229,11.662-1.443c0,0,0.696-0.619,0.943,0.535l0.074,4.432
			C135.683,345.947,135.802,346.891,135.275,347.297z"/>
		<path style="fill:#8CCBDD;" d="M106.63,341.453c-1.6,1.238-5.049,4.221-10.911,1.379c0,0-0.612-0.297-0.696-1.037l0.389-4.301
			c0,0-0.027-1.307,0.741-0.977c0,0,3.85,2.887,10.567-0.785c0,0,0.697-0.619,0.944,0.535l-0.306,3.77
			C107.358,340.037,107.156,341.047,106.63,341.453z"/>
		<g>
			<path style="fill:#F4B78E;" d="M149.708,218.146c0,0,8.009,9.641,17.361,28.485l-3.556,2.258c0,0-21.14-16.941-23.026-28.057
				L149.708,218.146z"/>
			<path style="fill:#F4B78E;" d="M144.901,199.249l4.982,20.074c0,0,0.491,5.539-3.711,7.041c0,0-4.129,0.973-6.398-5.553
				l-6.405-19.436L144.901,199.249z"/>
			<path style="fill:#F4B78E;" d="M163.514,248.889c3.186,7.268,4.162,8.748,4.162,8.748c1.989,4.217,4.5,2.633,4.5,2.633
				c2.172,1.443,2.43-1.416,2.43-1.416c0.863-0.738,0.358-1.828,0.358-1.828l-4.084-5.441c-0.405-1.133,0.807-0.854,0.807-0.854
				l3.33,1.221c1.646,0.439,1.255-1.182,1.255-1.182l-9.376-4.488L163.514,248.889z"/>
		</g>
		<path style="fill:#5A4B70;" d="M137.661,169.11c0,0,5.871,2.303,6.543,12.028l2.807,20.437c0,0-7.43,6.459-14.854,2.305
			l-1.732-24.8C130.425,179.08,130.425,170.17,137.661,169.11z"/>
		<path style="fill:#FFFFFF;" d="M116.925,153.048l-5.092,2.478c0,0,5.287,7.194,17.201,7.741c0.166,0.008-1.729-5.991-1.729-5.991
			L116.925,153.048z"/>
		<path style="fill:#554F49;" d="M103.751,125.09c-0.002,0.022-2.812,10.633,6.936,20.18l6.434,5.906l4.535-1.213
			c0,0,0.66-9.534,0.66-9.535c0.104-0.816-0.781-1.857-1.074-2.561c-0.365-0.878-0.483-1.698-0.479-2.648
			c0.012-1.814,0.592-3.9,2.871-3.439c1.881,0.382,2.564,2.713,2.954,4.343l1.127-0.241c-0.805-5.472,3.255-7.472,3.255-7.472
			c-1.039-5.772,4.297-5.417,4.297-5.417s6.664-0.15,5.838-6.292c0,0,0.414-3.603-5.256-6.969c-10.98-1.284-15.74-0.326-15.74-0.326
			c-2.297,0.321-4.816,1.035-7.111,2.147c-2.145,1.038-4.092,2.423-5.475,4.162c0,0-1.398,2.088,0.352,4.749
			C107.874,120.463,104.308,120.463,103.751,125.09z"/>
		<path style="fill:#F4784C;" d="M141.176,106.48c1.015,4.606-2.698,6.024-2.698,6.024c4.342-4.961-4.341-9.036-4.341-9.036
			c2.657,5.138-5.676,3.897-5.676,3.897c-20.733-1.771-20.939,8.35-20.939,8.35s-1.398,2.088,0.352,4.749c0,0-3.566,0-4.123,4.626
			c-0.002,0.022-2.812,10.633,6.936,20.18l6.434,5.906l4.535-1.213c0,0,0.66-9.534,0.66-9.535c0.104-0.816-0.781-1.857-1.074-2.561
			c-0.365-0.878-0.483-1.698-0.479-2.648c0.012-1.814,0.592-3.9,2.871-3.439c1.881,0.382,2.564,2.713,2.954,4.343l1.127-0.241
			c-0.805-5.472,3.255-7.472,3.255-7.472c-1.039-5.772,4.297-5.417,4.297-5.417S148.392,121.539,141.176,106.48z"/>
		<g>
			<path style="fill:#F4B78E;" d="M125.784,140.288c-1.794,0.889-4.209-0.331-5.395-2.723c-1.184-2.393-0.691-5.053,1.103-5.941
				c1.794-0.887,4.208,0.331,5.393,2.724C128.071,136.74,127.577,139.399,125.784,140.288z"/>
			<path style="fill:#DD957C;" d="M125.497,137.69c-0.604-0.155-0.533-0.44-0.59-0.954c-0.042-0.382-0.212-0.658-0.449-0.949
				c-0.264-0.321-0.523-0.322-0.782-0.245c-0.218-0.019-0.455,0.01-0.68,0.047c-0.722,0.117-0.989-0.155-0.886-0.947
				c0.12-0.91,1.08-1.328,1.977-1.454c0.38-0.054,0.542-0.343,0.021-0.524c-1.604-0.56-2.851,0.807-2.881,2.35
				c-0.012,0.551,0.215,1.171,0.76,1.383c0.021,0.009,0.074,0.017,0.138,0.022c0.298,0.465,0.772,0.747,1.068,1.219
				c0.046,0.073,0.104,0.118,0.165,0.149c0.09,0.201,0.188,0.398,0.319,0.568c0.397,0.517,1.097,0.054,1.607,0.169
				C125.825,138.647,126.036,137.828,125.497,137.69z"/>
		</g>
	</g>
	<g>
		<path style="fill:#394778;" d="M355.665,276.267c0.848,4.139-0.308,9.955-1.469,13.961c-2.523,8.7-14.17,12.814-21.908,14.269
			c0,0-15.509,1.782-14.829-19.346L355.665,276.267z"/>
		<path style="fill:#F4B78E;" d="M365.824,242.325c0,0-5.1,6.008-15.242,20.503l-2.266,2.974c0,0,21.391-8.752,26.931-18.573
			L365.824,242.325z"/>
		<path style="fill:#F4B78E;" d="M362.893,238.733c0,0,4.623,9.092,9.504,9.555c0,0,2.709,0.172,3.253-1.87
			c0,0,1.899-2.44-3.257-14.481L362.893,238.733z"/>
		<path style="fill:#CBE1DB;" d="M353.056,203.669c0,0,5.754-0.768,8.723,5.061l12.159,24.117c0,0-1.27,6.428-13.213,7.672
			l-11.029-22.088C349.695,218.431,346.172,206.706,353.056,203.669z"/>
		<path style="fill:#BCBEC0;" d="M373.477,231.936c-0.811,2.993-3.112,4.625-6.055,5.938c-1.313,0.583-3.474,1.203-4.799,0.291
			c-2.139-1.47-1.603-6.206-1.746-8.42c-0.239-3.683-0.432-7.371-0.468-11.06c-0.034-3.389,0.161-6.914-1.093-10.135
			c-0.896-2.299-2.694-3.818-4.838-4.881c-0.863-0.076-1.423,0-1.423,0c-6.884,3.036-3.36,14.762-3.36,14.762l11.029,22.088
			c11.943-1.244,13.213-7.672,13.213-7.672L373.477,231.936z"/>
		<g>
			<path style="fill:#0B1225;" d="M320.368,394.175l0.546,6.322c-0.456,1.291-4.716,1.846-4.716,1.846
				c-2.167-0.092-11.437-4.152-14.466-5.547c-4.103-1.89-5.473-4.65-4.379-7.826c0.514-1.14,4.91-1.016,13.256,2.306
				C310.609,391.275,315.621,393.775,320.368,394.175z"/>
			<path style="fill:#000016;" d="M316.198,400.917c-2.167-0.092-11.437-4.15-14.466-5.546c-2.873-1.323-4.401-3.075-4.686-5.098
				c-0.347,2.626,1.157,4.896,4.686,6.522c3.029,1.395,12.299,5.455,14.466,5.547c0,0,4.26-0.555,4.716-1.846l-0.107-1.231
				C320.022,400.418,316.198,400.917,316.198,400.917z"/>
		</g>
		<g>
			<path style="fill:#0B1225;" d="M358.383,390.946l0.545,6.321c-0.457,1.292-4.716,1.846-4.716,1.846
				c-2.166-0.091-11.437-4.151-14.466-5.546c-4.103-1.891-5.473-4.65-4.378-7.826c0.513-1.14,4.909-1.016,13.257,2.306
				C348.625,388.047,353.635,390.547,358.383,390.946z"/>
			<path style="fill:#000016;" d="M354.212,397.688c-2.166-0.092-11.437-4.15-14.466-5.546c-2.874-1.324-4.402-3.075-4.686-5.098
				c-0.348,2.625,1.156,4.896,4.686,6.522c3.029,1.395,12.3,5.455,14.466,5.546c0,0,4.259-0.554,4.716-1.846l-0.106-1.231
				C358.035,397.188,354.212,397.688,354.212,397.688z"/>
		</g>
		<path style="fill:#394778;" d="M317.664,290.708l-6.234,39.265l-2.477,66.625c0,0,4.162,4.114,11.612,1.819l8.442-67.842
			l11.713-40.67L317.664,290.708z"/>
		<path style="fill:#394778;" d="M340.961,332.558l7.289,59.453c0,0,6.072,3.808,10.253,0.285l-1.143-65.858l-1.466-45.247
			l-18.359,7.912L340.961,332.558z"/>
		<polygon style="fill:#F4B78E;" points="327.709,202.129 330.787,216.309 340.744,211.018 338.434,199.002 		"/>
		<path style="fill:#F4B78E;" d="M331.066,205.929c10.948-2.822,13.255-3.744,17.926-11.803c3.422-5.906,2.055-15.616-2.103-21.426
			c-2.044-2.857-6.164-5.45-9.74-5.78c-7.164-0.659-15.837,2.752-19.592,9.136c-2.285,3.883,1.61,6.284-2.018,12.745
			c0,0-3.34,2.561-0.559,4.454c0,0,1.799,0.658,2.622,2.035c0,0,0.393,2.717,1.035,6.419c0.683,3.925,1.169,5.945,7.108,5.081
			C325.746,206.79,330.482,206.079,331.066,205.929z"/>
		<path style="fill:#D83633;" d="M357.348,288.166c1.092-31.61,0.1-76.354,0.1-76.354c-0.59-3.934-0.862-8.926-6.184-8.032
			c-3.756,0.631-8.823,2.648-11.139,3.392c-0.805,1.98-4.145,3.279-4.145,3.279c-4.58,2.104-6.188,1.484-6.188,1.484
			c-2.014,1.092-8.301,4.582-10.068,6.038c-1.836,1.509-2.945,3.861-2.367,7.821l-1.441,72.831
			C315.916,298.626,332.288,304.496,357.348,288.166z"/>
		<path style="fill:#BCBEC0;" d="M334.93,297.132c-3.245-0.738-6.477-2.07-8.869-4.46c-2.514-2.511-3.918-5.771-4.709-9.199
			c-1.819-7.893,2.277-16.657,3.672-24.616c1.259-7.185,2.01-14.182,2.662-21.45c0.668-7.476-1.939-21.097,1.94-25.38
			c-2.162,1.177-8.177,4.526-9.9,5.947c-1.836,1.509-2.945,3.861-2.367,7.821l-1.441,72.831c0,0,8.075,2.883,21.553-1.042
			C336.62,297.466,335.774,297.323,334.93,297.132z"/>
		<g>
			<path style="fill:#F4B78E;" d="M311.27,249.433l-6.99,20.076c0,0-0.493,5.537,3.709,7.039c0,0,4.13,0.974,6.4-5.552l8.412-19.436
				L311.27,249.433z"/>
		</g>
		<path style="fill:#CBE1DB;" d="M318.51,219.292c0,0-5.872,2.303-6.544,12.03l-2.806,20.436c0,0,7.429,6.459,14.854,2.305
			l1.732-24.8C325.746,229.264,325.746,220.354,318.51,219.292z"/>
		<path style="fill:#F4B78E;" d="M306.703,267.068c0,0-10.217,3.397-28.989,14.617l1.217,4.47c0,0,26.212-6.105,33.442-11.475
			L306.703,267.068z"/>
		<g>
			<path style="fill:#F8B78F;" d="M271.822,287.2c-0.463-0.504-2.059,0.545-3.274-1.246c1.827-1.315,2.968-1.973,3.519-2.153
				c0.814-0.267,1.108,0.046,1.828,0.521c0.582,0.384,1.055,0.972,1.66,1.328c0.612,0.361,2.549-0.26,3.362-0.346l0.493,0.805
				c0,0-2.797,2.474-5.225,3.905L271.822,287.2z"/>
			<path style="fill:#F8B78F;" d="M269.197,282.909c1.251-0.461,3.814-1.429,4.111-1.35l2.939,0.384l1.887-0.331
				c0.344,1.965,0.783,3.692,0.783,3.692c-2.474,0.779-3.046,1.031-3.046,1.031s-1.313,0.377-3.079-1.619l-0.913-0.771
				C271.879,283.944,269.643,284.681,269.197,282.909z"/>
			<path style="fill:#F8B78F;" d="M274.869,289.643c0.725-0.443,0.139-0.992,0.139-0.992c-0.4-0.7-0.963-0.321-0.963-0.321
				l0.305-0.186c0.219-0.395-0.294-0.829-0.294-0.829c-0.442-0.571-1.032-0.099-1.032-0.099l0.543-0.385
				c0.254-0.336-0.221-0.85-0.221-0.85c-0.579-0.686-1.104-0.208-1.104-0.208l-0.247,0.151c0,0-0.467-1.822-2.508-0.544
				l-0.939,0.573c0,0,0.032,0.986,1.468,1.25c0,0,0.069,1.264,1.239,1.283c0,0,0.211,0.935,1.157,1.025c0,0,0.336,1.025,1.035,0.871
				L274.869,289.643z"/>
		</g>
		<path style="fill:#823700;" d="M348.082,170.517c2.021,2.54,3.222,6.211,3.772,9.375c0.004,0.021,2.522,11.941-7.226,21.486
			l-4.821,4.772l-5.264-1.141l-3.872-9.56c6.094-4.227,4.763-7.966,4.763-7.966c-0.565-1.048-0.413-1.867-3.896-1.424
			c-1.281,0.164-2.205,3.544-2.521,4.865l-1.128-0.242c0.805-5.472-3.256-7.472-3.256-7.472c1.04-5.771-4.295-5.417-4.295-5.417
			s-6.666-0.149-5.838-6.291c0,0-0.257-2.388,2.701-4.664c0,0,0.123,2.213,1.541,2.922c0,0,0.841-10.618,20.618-8.853
			c0,0-2.06,0.82,0,2.946c0,0,6.271-2.126,12.787,6.379C352.149,170.234,349.31,169.854,348.082,170.517z"/>
		<g>
			<path style="fill:#F4B78E;" d="M330.586,192.605c1.475,0.73,3.459-0.272,4.434-2.238c0.974-1.967,0.568-4.153-0.905-4.883
				c-1.475-0.729-3.46,0.273-4.435,2.239C328.705,189.689,329.111,191.874,330.586,192.605z"/>
			<path style="fill:#DD957C;" d="M330.822,190.468c0.496-0.127,0.438-0.361,0.484-0.782c0.035-0.314,0.174-0.542,0.37-0.78
				c0.216-0.264,0.43-0.264,0.643-0.201c0.179-0.016,0.374,0.008,0.558,0.039c0.594,0.096,0.815-0.127,0.729-0.779
				c-0.1-0.747-0.888-1.091-1.623-1.195c-0.313-0.043-0.447-0.281-0.02-0.43c1.318-0.461,2.344,0.663,2.369,1.931
				c0.01,0.452-0.176,0.964-0.625,1.138c-0.018,0.008-0.06,0.014-0.113,0.018c-0.246,0.383-0.634,0.612-0.878,1.001
				c-0.038,0.061-0.085,0.098-0.136,0.125c-0.074,0.165-0.154,0.324-0.264,0.465c-0.326,0.426-0.899,0.045-1.319,0.139
				C330.553,191.255,330.379,190.583,330.822,190.468z"/>
		</g>
	</g>
</g>
</svg>
